<svg width="375" height="922" viewBox="0 0 375 922" fill="none" xmlns="http://www.w3.org/2000/svg">
<g clip-path="url(#clip0_6370_5205)">
<rect width="375" height="922" fill="white"/>
<path d="M33.8417 28.1831C31.2489 28.1831 29.6889 26.0811 29.6889 22.7192V22.7046C29.6889 19.3428 31.2489 17.248 33.8417 17.248C36.4271 17.248 37.9945 19.3428 37.9945 22.7046V22.7192C37.9945 26.0811 36.4271 28.1831 33.8417 28.1831ZM33.8417 26.6377C35.2626 26.6377 36.0902 25.1582 36.0902 22.7192V22.7046C36.0902 20.2656 35.2626 18.8008 33.8417 18.8008C32.4135 18.8008 31.5932 20.2656 31.5932 22.7046V22.7192C31.5932 25.1582 32.4135 26.6377 33.8417 26.6377ZM44.1398 28V25.9712H38.8664V24.3599L43.2536 17.4312H45.9416V24.4185H47.3771V25.9712H45.9416V28H44.1398ZM40.5656 24.4624H44.1691V18.8594H44.1252L40.5656 24.4111V24.4624ZM49.2378 21.0859C48.6445 21.0859 48.1758 20.6172 48.1758 20.0239C48.1758 19.4307 48.6445 18.9692 49.2378 18.9692C49.8311 18.9692 50.2925 19.4307 50.2925 20.0239C50.2925 20.6172 49.8311 21.0859 49.2378 21.0859ZM49.2378 26.4619C48.6445 26.4619 48.1758 25.9932 48.1758 25.3999C48.1758 24.8066 48.6445 24.3452 49.2378 24.3452C49.8311 24.3452 50.2925 24.8066 50.2925 25.3999C50.2925 25.9932 49.8311 26.4619 49.2378 26.4619ZM54.1233 28V19.2329H54.0794L51.3475 21.1079V19.3721L54.1087 17.4312H55.9764V28H54.1233ZM62.0484 17.248C64.3775 17.248 66.3185 18.8813 66.3185 22.5874V22.6021C66.3185 26.0957 64.6998 28.1831 62.0045 28.1831C60.0489 28.1831 58.5841 27.0552 58.2545 25.4585L58.2398 25.3779H60.1148L60.1368 25.4438C60.4225 26.1689 61.067 26.6377 62.0118 26.6377C63.711 26.6377 64.4215 25.0117 64.4947 23.0122C64.5021 22.9023 64.5094 22.7925 64.5094 22.6753H64.4654C64.048 23.6421 62.9933 24.3745 61.565 24.3745C59.5289 24.3745 58.0934 22.9097 58.0934 20.9248V20.9102C58.0934 18.7788 59.7706 17.248 62.0484 17.248ZM62.0484 22.917C63.2569 22.917 64.1798 22.0674 64.1798 20.8882V20.8809C64.1798 19.709 63.2569 18.7935 62.0704 18.7935C60.8985 18.7935 59.9537 19.7017 59.9537 20.8442V20.8589C59.9537 22.0601 60.8473 22.917 62.0484 22.917Z" fill="#F6F7FB"/>
<rect opacity="0.35" x="336.833" y="17.833" width="21" height="10.3333" rx="2.16667" stroke="#F6F7FB"/>
<path opacity="0.4" d="M359.333 21V25C360.138 24.6612 360.661 23.8731 360.661 23C360.661 22.1269 360.138 21.3388 359.333 21Z" fill="#F6F7FB"/>
<rect x="338.333" y="19.333" width="18" height="7.33333" rx="1.33333" fill="#F6F7FB"/>
<path fill-rule="evenodd" clip-rule="evenodd" d="M323.667 19.6155C325.892 19.6156 328.031 20.4697 329.644 22.0013C329.765 22.1196 329.959 22.1181 330.079 21.998L331.239 20.8277C331.3 20.7667 331.334 20.6842 331.333 20.5984C331.333 20.5125 331.298 20.4304 331.237 20.3702C327.005 16.318 320.329 16.318 316.097 20.3702C316.035 20.4304 316.001 20.5125 316 20.5983C315.999 20.6842 316.033 20.7667 316.094 20.8277L317.255 21.998C317.374 22.1183 317.568 22.1198 317.69 22.0013C319.302 20.4696 321.442 19.6155 323.667 19.6155ZM323.667 23.4231C324.889 23.423 326.068 23.877 326.974 24.6968C327.097 24.8131 327.29 24.8106 327.409 24.6911L328.569 23.5208C328.63 23.4594 328.663 23.3761 328.663 23.2896C328.662 23.203 328.626 23.1204 328.564 23.0603C325.805 20.4959 321.532 20.4959 318.773 23.0603C318.71 23.1204 318.675 23.2031 318.674 23.2896C318.673 23.3762 318.707 23.4595 318.768 23.5208L319.927 24.6911C320.047 24.8106 320.24 24.8131 320.362 24.6968C321.268 23.8775 322.446 23.4236 323.667 23.4231ZM325.989 25.985C325.991 26.0717 325.957 26.1554 325.895 26.2162L323.89 28.2382C323.831 28.2976 323.751 28.3311 323.667 28.3311C323.583 28.3311 323.503 28.2976 323.445 28.2382L321.439 26.2162C321.377 26.1553 321.343 26.0717 321.345 25.9849C321.347 25.8981 321.384 25.8159 321.449 25.7578C322.729 24.6755 324.605 24.6755 325.886 25.7578C325.95 25.816 325.988 25.8982 325.989 25.985Z" fill="#F6F7FB"/>
<path fill-rule="evenodd" clip-rule="evenodd" d="M310 17.667H309C308.448 17.667 308 18.1147 308 18.667V27.3337C308 27.8859 308.448 28.3337 309 28.3337H310C310.552 28.3337 311 27.8859 311 27.3337V18.667C311 18.1147 310.552 17.667 310 17.667ZM304.333 20.0003H305.333C305.886 20.0003 306.333 20.448 306.333 21.0003V27.3337C306.333 27.8859 305.886 28.3337 305.333 28.3337H304.333C303.781 28.3337 303.333 27.8859 303.333 27.3337V21.0003C303.333 20.448 303.781 20.0003 304.333 20.0003ZM300.667 22.3337H299.667C299.114 22.3337 298.667 22.7814 298.667 23.3337V27.3337C298.667 27.8859 299.114 28.3337 299.667 28.3337H300.667C301.219 28.3337 301.667 27.8859 301.667 27.3337V23.3337C301.667 22.7814 301.219 22.3337 300.667 22.3337ZM296 24.3337H295C294.448 24.3337 294 24.7814 294 25.3337V27.3337C294 27.8859 294.448 28.3337 295 28.3337H296C296.552 28.3337 297 27.8859 297 27.3337V25.3337C297 24.7814 296.552 24.3337 296 24.3337Z" fill="#F6F7FB"/>
<g filter="url(#filter0_b_6370_5205)">
<rect width="375" height="34" transform="translate(0 888)" fill="#F3F4F4" fill-opacity="0.7"/>
<rect x="121" y="909" width="134" height="5" rx="2.5" fill="#1B2234" fill-opacity="0.32"/>
<rect width="375" height="56" transform="translate(0 832)" fill="#F3F4F4" fill-opacity="0.7"/>
<path fill-rule="evenodd" clip-rule="evenodd" d="M52.875 842.597C51.999 842.597 51.123 842.884 50.3964 843.457L44.8964 847.799C43.9356 848.558 43.375 849.715 43.375 850.939V857.5C43.375 859.71 45.1659 861.5 47.375 861.5H48.875C49.4273 861.5 49.875 861.053 49.875 860.5V857.5C49.875 856.396 50.7704 855.5 51.875 855.5H52.875V842.597Z" fill="#20285A"/>
<path d="M50.3964 843.457L49.9317 842.868V842.868L50.3964 843.457ZM52.875 842.597H53.625V841.847L52.875 841.847V842.597ZM44.8964 847.799L45.3612 848.388H45.3612L44.8964 847.799ZM52.875 855.5V856.25H53.625V855.5H52.875ZM50.8612 844.046C51.4516 843.58 52.1628 843.347 52.875 843.347V841.847C51.8353 841.847 50.7945 842.187 49.9317 842.868L50.8612 844.046ZM45.3612 848.388L50.8612 844.046L49.9317 842.868L44.4317 847.211L45.3612 848.388ZM44.125 850.939C44.125 849.944 44.5805 849.004 45.3612 848.388L44.4317 847.211C43.2907 848.111 42.625 849.485 42.625 850.939H44.125ZM44.125 857.5V850.939H42.625V857.5H44.125ZM47.375 860.75C45.5801 860.75 44.125 859.295 44.125 857.5H42.625C42.625 860.124 44.7516 862.25 47.375 862.25V860.75ZM48.875 860.75H47.375V862.25H48.875V860.75ZM49.125 860.5C49.125 860.638 49.0131 860.75 48.875 860.75V862.25C49.8415 862.25 50.625 861.467 50.625 860.5H49.125ZM49.125 857.5V860.5H50.625V857.5H49.125ZM51.875 854.75C50.3562 854.75 49.125 855.982 49.125 857.5H50.625C50.625 856.81 51.1846 856.25 51.875 856.25V854.75ZM52.875 854.75H51.875V856.25H52.875V854.75ZM53.625 855.5V842.597H52.125V855.5H53.625Z" fill="#2B3F6C"/>
<g opacity="0.3">
<path fill-rule="evenodd" clip-rule="evenodd" d="M52.875 842.597C53.751 842.597 54.627 842.884 55.3536 843.457L60.8536 847.799C61.8144 848.558 62.375 849.715 62.375 850.939V857.5C62.375 859.71 60.5841 861.5 58.375 861.5H56.875C56.3227 861.5 55.875 861.053 55.875 860.5V857.5C55.875 856.396 54.9796 855.5 53.875 855.5H52.875V842.597Z" fill="#20285A"/>
<path d="M55.3536 843.457L55.8183 842.868V842.868L55.3536 843.457ZM52.875 842.597H52.125V841.847L52.875 841.847V842.597ZM60.8536 847.799L60.3888 848.388H60.3888L60.8536 847.799ZM52.875 855.5V856.25H52.125V855.5H52.875ZM54.8888 844.046C54.2984 843.58 53.5872 843.347 52.875 843.347V841.847C53.9147 841.847 54.9555 842.187 55.8183 842.868L54.8888 844.046ZM60.3888 848.388L54.8888 844.046L55.8183 842.868L61.3183 847.211L60.3888 848.388ZM61.625 850.939C61.625 849.944 61.1695 849.004 60.3888 848.388L61.3183 847.211C62.4593 848.111 63.125 849.485 63.125 850.939H61.625ZM61.625 857.5V850.939H63.125V857.5H61.625ZM58.375 860.75C60.1699 860.75 61.625 859.295 61.625 857.5H63.125C63.125 860.124 60.9984 862.25 58.375 862.25V860.75ZM56.875 860.75H58.375V862.25H56.875V860.75ZM56.625 860.5C56.625 860.638 56.7369 860.75 56.875 860.75V862.25C55.9085 862.25 55.125 861.467 55.125 860.5H56.625ZM56.625 857.5V860.5H55.125V857.5H56.625ZM53.875 854.75C55.3938 854.75 56.625 855.982 56.625 857.5H55.125C55.125 856.81 54.5654 856.25 53.875 856.25V854.75ZM52.875 854.75H53.875V856.25H52.875V854.75ZM52.125 855.5V842.597H53.625V855.5H52.125Z" fill="#2B3F6C"/>
</g>
<path d="M45.61 869.3H46.622V877H45.61V873.535H41.87V877H40.847V869.3H41.87V872.567H45.61V869.3ZM52.0208 871.5H53.0548L50.8548 877V879.013H49.7328V877L47.5328 871.5H48.5668L50.2938 875.977L52.0208 871.5ZM57.682 871.5H58.716L56.516 877V879.013H55.394V877L53.194 871.5H54.228L55.955 875.977L57.682 871.5ZM62.5291 871.357C63.2991 871.357 63.9554 871.639 64.4981 872.204C65.0408 872.761 65.3121 873.443 65.3121 874.25C65.3121 875.057 65.0408 875.742 64.4981 876.307C63.9554 876.864 63.2991 877.143 62.5291 877.143C61.6198 877.143 60.9268 876.78 60.4501 876.054V879.2H59.4931V871.5H60.4501V872.446C60.9268 871.72 61.6198 871.357 62.5291 871.357ZM62.4081 876.219C62.9581 876.219 63.4201 876.032 63.7941 875.658C64.1681 875.277 64.3551 874.807 64.3551 874.25C64.3551 873.693 64.1681 873.227 63.7941 872.853C63.4201 872.472 62.9581 872.281 62.4081 872.281C61.8508 872.281 61.3851 872.472 61.0111 872.853C60.6371 873.227 60.4501 873.693 60.4501 874.25C60.4501 874.807 60.6371 875.277 61.0111 875.658C61.3851 876.032 61.8508 876.219 62.4081 876.219Z" fill="#2B3F6C"/>
<path fill-rule="evenodd" clip-rule="evenodd" d="M137.625 846C134.864 846 132.625 848.239 132.625 851V857C132.625 859.761 134.864 862 137.625 862H147.625C150.303 862 152.489 859.895 152.619 857.25H148.125C146.33 857.25 144.875 855.795 144.875 854C144.875 852.205 146.33 850.75 148.125 850.75H152.619C152.489 848.105 150.303 846 147.625 846H137.625ZM148.125 852.25H152.625V855.75H148.125C147.159 855.75 146.375 854.966 146.375 854C146.375 853.034 147.159 852.25 148.125 852.25ZM136.625 856.75C136.211 856.75 135.875 857.086 135.875 857.5C135.875 857.914 136.211 858.25 136.625 858.25H142.625C143.039 858.25 143.375 857.914 143.375 857.5C143.375 857.086 143.039 856.75 142.625 856.75H136.625ZM148.125 853.25C147.711 853.25 147.375 853.586 147.375 854C147.375 854.414 147.711 854.75 148.125 854.75H148.325C148.739 854.75 149.075 854.414 149.075 854C149.075 853.586 148.739 853.25 148.325 853.25H148.125Z" fill="#2B3F6C"/>
<path d="M150.112 844.993C149.391 843.001 147.285 841.716 145.066 842.172L136.465 843.943C134.669 844.313 133.213 845.497 132.452 847.063C133.64 845.505 135.515 844.5 137.625 844.5H147.625C148.506 844.5 149.346 844.675 150.112 844.993Z" fill="#2B3F6C"/>
<path d="M135.32 873.018C135.716 873.187 136.024 873.432 136.244 873.755C136.464 874.078 136.574 874.459 136.574 874.899C136.574 875.559 136.325 876.098 135.826 876.516C135.335 876.934 134.682 877.143 133.868 877.143C133.127 877.143 132.53 876.978 132.075 876.648C131.628 876.318 131.312 875.893 131.129 875.372L131.998 874.877C132.225 875.742 132.849 876.175 133.868 876.175C134.403 876.175 134.818 876.058 135.111 875.823C135.404 875.581 135.551 875.262 135.551 874.866C135.551 874.47 135.412 874.151 135.133 873.909C134.862 873.667 134.48 873.546 133.989 873.546H133.087V872.611H133.736C134.205 872.611 134.579 872.497 134.858 872.27C135.137 872.035 135.276 871.731 135.276 871.357C135.276 870.99 135.144 870.693 134.88 870.466C134.623 870.231 134.264 870.114 133.802 870.114C132.951 870.114 132.383 870.492 132.097 871.247L131.239 870.752C131.701 869.689 132.555 869.157 133.802 869.157C134.543 869.157 135.14 869.362 135.595 869.773C136.057 870.184 136.288 870.704 136.288 871.335C136.288 872.068 135.965 872.629 135.32 873.018ZM139.67 871.357C140.506 871.357 141.181 871.628 141.694 872.171C142.215 872.714 142.475 873.407 142.475 874.25C142.475 875.086 142.215 875.779 141.694 876.329C141.173 876.872 140.495 877.143 139.659 877.143C139.072 877.143 138.559 877.015 138.119 876.758C137.679 876.494 137.36 876.138 137.162 875.691L137.976 875.218C138.093 875.519 138.295 875.761 138.581 875.944C138.874 876.127 139.234 876.219 139.659 876.219C140.136 876.219 140.535 876.08 140.858 875.801C141.181 875.522 141.386 875.156 141.474 874.701H139.021V873.799H141.474C141.386 873.344 141.184 872.978 140.869 872.699C140.554 872.42 140.158 872.281 139.681 872.281C139.292 872.281 138.951 872.373 138.658 872.556C138.372 872.732 138.159 872.97 138.02 873.271L137.195 872.798C137.415 872.351 137.745 871.999 138.185 871.742C138.625 871.485 139.12 871.357 139.67 871.357ZM145.438 871.357C146.274 871.357 146.949 871.628 147.462 872.171C147.983 872.714 148.243 873.407 148.243 874.25C148.243 875.086 147.983 875.779 147.462 876.329C146.942 876.872 146.263 877.143 145.427 877.143C144.841 877.143 144.327 877.015 143.887 876.758C143.447 876.494 143.128 876.138 142.93 875.691L143.744 875.218C143.862 875.519 144.063 875.761 144.349 875.944C144.643 876.127 145.002 876.219 145.427 876.219C145.904 876.219 146.304 876.08 146.626 875.801C146.949 875.522 147.154 875.156 147.242 874.701H144.789V873.799H147.242C147.154 873.344 146.953 872.978 146.637 872.699C146.322 872.42 145.926 872.281 145.449 872.281C145.061 872.281 144.72 872.373 144.426 872.556C144.14 872.732 143.928 872.97 143.788 873.271L142.963 872.798C143.183 872.351 143.513 871.999 143.953 871.742C144.393 871.485 144.888 871.357 145.438 871.357ZM153.771 871.5V877H152.814V872.424H150.647V874.668C150.647 875.57 150.464 876.201 150.097 876.56C149.738 876.912 149.228 877.059 148.568 877V876.098C148.942 876.149 149.221 876.069 149.404 875.856C149.595 875.636 149.69 875.233 149.69 874.646V871.5H153.771Z" fill="#1B2234" fill-opacity="0.32"/>
<path opacity="0.3" fill-rule="evenodd" clip-rule="evenodd" d="M227.375 841.25C224.199 841.25 221.625 843.824 221.625 847V857C221.625 860.176 224.199 862.75 227.375 862.75H237.375C240.551 862.75 243.125 860.176 243.125 857V847C243.125 843.824 240.551 841.25 237.375 841.25H227.375Z" fill="#2B3F6C"/>
<path d="M227.375 854.75L230.875 850.75L233.875 853.25L237.375 849.25" stroke="#2B3F6C" stroke-width="1.5" stroke-linecap="round" stroke-linejoin="round"/>
<circle cx="2" cy="2" r="2" transform="matrix(-1 0 0 1 243.375 842)" fill="#2B3F6C"/>
<path d="M209.47 877H208.304L206.412 873.964L204.52 877H203.365L205.84 873.04L203.508 869.3H204.663L206.412 872.105L208.161 869.3H209.316L206.995 873.029L209.47 877ZM214.549 871.5H215.506V877H214.549V876.054C214.072 876.78 213.379 877.143 212.47 877.143C211.7 877.143 211.043 876.864 210.501 876.307C209.958 875.742 209.687 875.057 209.687 874.25C209.687 873.443 209.958 872.761 210.501 872.204C211.043 871.639 211.7 871.357 212.47 871.357C213.379 871.357 214.072 871.72 214.549 872.446V871.5ZM212.591 876.219C213.148 876.219 213.614 876.032 213.988 875.658C214.362 875.277 214.549 874.807 214.549 874.25C214.549 873.693 214.362 873.227 213.988 872.853C213.614 872.472 213.148 872.281 212.591 872.281C212.041 872.281 211.579 872.472 211.205 872.853C210.831 873.227 210.644 873.693 210.644 874.25C210.644 874.807 210.831 875.277 211.205 875.658C211.579 876.032 212.041 876.219 212.591 876.219ZM221.685 876.087H222.444V878.474H221.498V877H217.373V878.474H216.427V876.087H217.098C217.45 875.603 217.626 874.925 217.626 874.052V871.5H221.685V876.087ZM218.187 876.087H220.739V872.391H218.572V874.052C218.572 874.873 218.444 875.552 218.187 876.087ZM227.084 871.5V872.424H224.433V877H223.476V871.5H227.084ZM232.262 871.5H233.219V877H232.262V876.054C231.786 876.78 231.093 877.143 230.183 877.143C229.413 877.143 228.757 876.864 228.214 876.307C227.672 875.742 227.4 875.057 227.4 874.25C227.4 873.443 227.672 872.761 228.214 872.204C228.757 871.639 229.413 871.357 230.183 871.357C231.093 871.357 231.786 871.72 232.262 872.446V871.5ZM230.304 876.219C230.862 876.219 231.327 876.032 231.701 875.658C232.075 875.277 232.262 874.807 232.262 874.25C232.262 873.693 232.075 873.227 231.701 872.853C231.327 872.472 230.862 872.281 230.304 872.281C229.754 872.281 229.292 872.472 228.918 872.853C228.544 873.227 228.357 873.693 228.357 874.25C228.357 874.807 228.544 875.277 228.918 875.658C229.292 876.032 229.754 876.219 230.304 876.219ZM239.256 871.5V877H238.299V872.424H236.132V874.668C236.132 875.57 235.949 876.201 235.582 876.56C235.223 876.912 234.713 877.059 234.053 877V876.098C234.427 876.149 234.706 876.069 234.889 875.856C235.08 875.636 235.175 875.233 235.175 874.646V871.5H239.256ZM245.26 871.5H246.217V877H245.26V876.054C244.784 876.78 244.091 877.143 243.181 877.143C242.411 877.143 241.755 876.864 241.212 876.307C240.67 875.742 240.398 875.057 240.398 874.25C240.398 873.443 240.67 872.761 241.212 872.204C241.755 871.639 242.411 871.357 243.181 871.357C244.091 871.357 244.784 871.72 245.26 872.446V871.5ZM243.302 876.219C243.86 876.219 244.325 876.032 244.699 875.658C245.073 875.277 245.26 874.807 245.26 874.25C245.26 873.693 245.073 873.227 244.699 872.853C244.325 872.472 243.86 872.281 243.302 872.281C242.752 872.281 242.29 872.472 241.916 872.853C241.542 873.227 241.355 873.693 241.355 874.25C241.355 874.807 241.542 875.277 241.916 875.658C242.29 876.032 242.752 876.219 243.302 876.219ZM253.167 871.5V877H252.232V873.007L250.483 875.823H250.362L248.613 873.007V877H247.667V871.5H248.69L250.417 874.283L252.144 871.5H253.167ZM261.393 877H260.271L258.214 874.393V877H257.268V874.393L255.211 877H254.1L256.399 874.162L254.21 871.5H255.321L257.268 873.931V871.5H258.214V873.931L260.161 871.5H261.283L259.083 874.162L261.393 877Z" fill="#1B2234" fill-opacity="0.32"/>
<path d="M324.745 841.936C323.117 841.021 321.133 841.021 319.505 841.936L313.469 845.328C312.01 846.147 312.01 848.254 313.469 849.073L319.505 852.465C321.133 853.38 323.117 853.38 324.745 852.465L330.781 849.073C332.24 848.254 332.24 846.147 330.781 845.328L324.745 841.936Z" fill="#2B3F6C"/>
<path opacity="0.3" d="M313.1 855.337C312.023 856.277 312.146 858.08 313.469 858.823L319.505 862.215C321.133 863.13 323.117 863.13 324.745 862.215L330.781 858.823C332.104 858.08 332.227 856.277 331.15 855.337L325.48 858.523C323.395 859.694 320.855 859.694 318.77 858.523L313.1 855.337Z" fill="#2B3F6C"/>
<path opacity="0.3" d="M313.1 850.5C312.023 851.44 312.146 853.243 313.469 853.986L319.505 857.378C321.133 858.293 323.117 858.293 324.745 857.378L330.781 853.986C332.104 853.243 332.227 851.44 331.15 850.5L325.48 853.686C323.395 854.857 320.855 854.857 318.77 853.686L313.1 850.5Z" fill="#2B3F6C"/>
<path d="M304.138 869.3V870.268H301.861V877H300.849V870.268H298.583V869.3H304.138ZM308.694 876.307C308.13 876.864 307.444 877.143 306.637 877.143C305.831 877.143 305.145 876.864 304.58 876.307C304.023 875.75 303.744 875.064 303.744 874.25C303.744 873.436 304.023 872.75 304.58 872.193C305.145 871.636 305.831 871.357 306.637 871.357C307.444 871.357 308.13 871.636 308.694 872.193C309.259 872.75 309.541 873.436 309.541 874.25C309.541 875.064 309.259 875.75 308.694 876.307ZM306.637 876.208C307.187 876.208 307.649 876.021 308.023 875.647C308.397 875.273 308.584 874.807 308.584 874.25C308.584 873.693 308.397 873.227 308.023 872.853C307.649 872.479 307.187 872.292 306.637 872.292C306.095 872.292 305.636 872.479 305.262 872.853C304.888 873.227 304.701 873.693 304.701 874.25C304.701 874.807 304.888 875.273 305.262 875.647C305.636 876.021 306.095 876.208 306.637 876.208ZM315.057 877H313.935L312.395 874.921L310.844 877H309.722L311.834 874.173L309.843 871.5H310.976L312.395 873.414L313.814 871.5H314.936L312.956 874.162L315.057 877ZM319.937 871.5H320.707V877H319.761V873.139L316.714 877H315.944V871.5H316.89V875.361L319.937 871.5ZM325.2 871.357C325.97 871.357 326.626 871.639 327.169 872.204C327.711 872.761 327.983 873.443 327.983 874.25C327.983 875.057 327.711 875.742 327.169 876.307C326.626 876.864 325.97 877.143 325.2 877.143C324.29 877.143 323.597 876.78 323.121 876.054V879.2H322.163V871.5H323.121V872.446C323.597 871.72 324.29 871.357 325.2 871.357ZM325.079 876.219C325.629 876.219 326.091 876.032 326.465 875.658C326.839 875.277 327.026 874.807 327.026 874.25C327.026 873.693 326.839 873.227 326.465 872.853C326.091 872.472 325.629 872.281 325.079 872.281C324.521 872.281 324.056 872.472 323.682 872.853C323.308 873.227 323.121 873.693 323.121 874.25C323.121 874.807 323.308 875.277 323.682 875.658C324.056 876.032 324.521 876.219 325.079 876.219ZM332.732 871.5V872.424H330.081V877H329.124V871.5H332.732ZM337.999 876.307C337.434 876.864 336.749 877.143 335.942 877.143C335.135 877.143 334.45 876.864 333.885 876.307C333.328 875.75 333.049 875.064 333.049 874.25C333.049 873.436 333.328 872.75 333.885 872.193C334.45 871.636 335.135 871.357 335.942 871.357C336.749 871.357 337.434 871.636 337.999 872.193C338.564 872.75 338.846 873.436 338.846 874.25C338.846 875.064 338.564 875.75 337.999 876.307ZM335.942 876.208C336.492 876.208 336.954 876.021 337.328 875.647C337.702 875.273 337.889 874.807 337.889 874.25C337.889 873.693 337.702 873.227 337.328 872.853C336.954 872.479 336.492 872.292 335.942 872.292C335.399 872.292 334.941 872.479 334.567 872.853C334.193 873.227 334.006 873.693 334.006 874.25C334.006 874.807 334.193 875.273 334.567 875.647C334.941 876.021 335.399 876.208 335.942 876.208ZM344.616 876.307C344.051 876.864 343.366 877.143 342.559 877.143C341.752 877.143 341.067 876.864 340.502 876.307C339.945 875.75 339.666 875.064 339.666 874.25C339.666 873.436 339.945 872.75 340.502 872.193C341.067 871.636 341.752 871.357 342.559 871.357C343.366 871.357 344.051 871.636 344.616 872.193C345.181 872.75 345.463 873.436 345.463 874.25C345.463 875.064 345.181 875.75 344.616 876.307ZM342.559 876.208C343.109 876.208 343.571 876.021 343.945 875.647C344.319 875.273 344.506 874.807 344.506 874.25C344.506 873.693 344.319 873.227 343.945 872.853C343.571 872.479 343.109 872.292 342.559 872.292C342.016 872.292 341.558 872.479 341.184 872.853C340.81 873.227 340.623 873.693 340.623 874.25C340.623 874.807 340.81 875.273 341.184 875.647C341.558 876.021 342.016 876.208 342.559 876.208Z" fill="#1B2234" fill-opacity="0.32"/>
</g>
<path d="M39.0164 140.726C38.027 141.706 36.823 142.196 35.4044 142.196C33.9857 142.196 32.7817 141.706 31.7924 140.726C30.8124 139.737 30.3224 138.528 30.3224 137.1C30.3224 135.672 30.8124 134.468 31.7924 133.488C32.7817 132.499 33.9857 132.004 35.4044 132.004C36.823 132.004 38.027 132.499 39.0164 133.488C40.0057 134.468 40.5004 135.672 40.5004 137.1C40.5004 138.528 40.0057 139.737 39.0164 140.726ZM33.1504 139.41C33.757 140.007 34.5084 140.306 35.4044 140.306C36.3004 140.306 37.0517 140.007 37.6584 139.41C38.097 138.971 38.377 138.444 38.4984 137.828H32.3104C32.4224 138.444 32.7024 138.971 33.1504 139.41ZM37.6584 134.79C37.0517 134.183 36.3004 133.88 35.4044 133.88C34.5084 133.88 33.757 134.183 33.1504 134.79C32.7117 135.229 32.4317 135.751 32.3104 136.358H38.4984C38.377 135.751 38.097 135.229 37.6584 134.79ZM45.8482 134.804C46.7909 134.804 47.5936 135.163 48.2562 135.882C48.9282 136.591 49.2642 137.464 49.2642 138.5C49.2642 139.536 48.9282 140.413 48.2562 141.132C47.5936 141.841 46.7909 142.196 45.8482 142.196C44.8682 142.196 44.1122 141.855 43.5802 141.174V144.8H41.7742V135H43.5802V135.826C44.1122 135.145 44.8682 134.804 45.8482 134.804ZM44.1262 139.928C44.4902 140.292 44.9522 140.474 45.5122 140.474C46.0722 140.474 46.5342 140.292 46.8982 139.928C47.2716 139.555 47.4582 139.079 47.4582 138.5C47.4582 137.921 47.2716 137.45 46.8982 137.086C46.5342 136.713 46.0722 136.526 45.5122 136.526C44.9522 136.526 44.4902 136.713 44.1262 137.086C43.7622 137.45 43.5802 137.921 43.5802 138.5C43.5802 139.079 43.7622 139.555 44.1262 139.928ZM60.0019 141.132C59.2832 141.841 58.4059 142.196 57.3699 142.196C56.3339 142.196 55.4566 141.841 54.7379 141.132C54.0286 140.413 53.6739 139.536 53.6739 138.5C53.6739 137.464 54.0286 136.591 54.7379 135.882C55.4566 135.163 56.3339 134.804 57.3699 134.804C58.4059 134.804 59.2832 135.163 60.0019 135.882C60.7206 136.591 61.0799 137.464 61.0799 138.5C61.0799 139.536 60.7206 140.413 60.0019 141.132ZM56.0119 139.886C56.3759 140.25 56.8286 140.432 57.3699 140.432C57.9112 140.432 58.3639 140.25 58.7279 139.886C59.0919 139.522 59.2739 139.06 59.2739 138.5C59.2739 137.94 59.0919 137.478 58.7279 137.114C58.3639 136.75 57.9112 136.568 57.3699 136.568C56.8286 136.568 56.3759 136.75 56.0119 137.114C55.6572 137.478 55.4799 137.94 55.4799 138.5C55.4799 139.06 55.6572 139.522 56.0119 139.886ZM66.4244 134.804C67.3671 134.804 68.1697 135.163 68.8324 135.882C69.5044 136.591 69.8404 137.464 69.8404 138.5C69.8404 139.536 69.5044 140.413 68.8324 141.132C68.1697 141.841 67.3671 142.196 66.4244 142.196C65.4444 142.196 64.6884 141.855 64.1564 141.174V144.8H62.3504V135H64.1564V135.826C64.6884 135.145 65.4444 134.804 66.4244 134.804ZM64.7024 139.928C65.0664 140.292 65.5284 140.474 66.0884 140.474C66.6484 140.474 67.1104 140.292 67.4744 139.928C67.8477 139.555 68.0344 139.079 68.0344 138.5C68.0344 137.921 67.8477 137.45 67.4744 137.086C67.1104 136.713 66.6484 136.526 66.0884 136.526C65.5284 136.526 65.0664 136.713 64.7024 137.086C64.3384 137.45 64.1564 137.921 64.1564 138.5C64.1564 139.079 64.3384 139.555 64.7024 139.928ZM76.9424 135V142H75.1364V136.736H73.2044V139.074C73.2044 141.239 72.2197 142.215 70.2504 142V140.306C70.6237 140.399 70.9084 140.339 71.1044 140.124C71.3004 139.9 71.3984 139.517 71.3984 138.976V135H76.9424ZM84.5429 141.132C83.8243 141.841 82.9469 142.196 81.9109 142.196C80.8749 142.196 79.9976 141.841 79.2789 141.132C78.5696 140.413 78.2149 139.536 78.2149 138.5C78.2149 137.464 78.5696 136.591 79.2789 135.882C79.9976 135.163 80.8749 134.804 81.9109 134.804C82.9469 134.804 83.8243 135.163 84.5429 135.882C85.2616 136.591 85.6209 137.464 85.6209 138.5C85.6209 139.536 85.2616 140.413 84.5429 141.132ZM80.5529 139.886C80.9169 140.25 81.3696 140.432 81.9109 140.432C82.4523 140.432 82.9049 140.25 83.2689 139.886C83.6329 139.522 83.8149 139.06 83.8149 138.5C83.8149 137.94 83.6329 137.478 83.2689 137.114C82.9049 136.75 82.4523 136.568 81.9109 136.568C81.3696 136.568 80.9169 136.75 80.5529 137.114C80.1983 137.478 80.0209 137.94 80.0209 138.5C80.0209 139.06 80.1983 139.522 80.5529 139.886ZM91.6794 135V136.736H88.6974V142H86.8914V135H91.6794ZM95.8113 137.24C96.6046 137.24 97.244 137.459 97.7293 137.898C98.2146 138.327 98.4573 138.901 98.4573 139.62C98.4573 140.339 98.2146 140.917 97.7293 141.356C97.244 141.785 96.6046 142 95.8113 142H92.6473V135H94.4533V137.24H95.8113ZM99.2273 135H101.033V142H99.2273V135ZM95.8253 140.404C96.0773 140.404 96.2826 140.334 96.4413 140.194C96.6093 140.045 96.6933 139.853 96.6933 139.62C96.6933 139.387 96.6093 139.195 96.4413 139.046C96.2826 138.897 96.0773 138.822 95.8253 138.822H94.4533V140.404H95.8253ZM107.274 135H109.08V142H107.274V139.34H104.488V142H102.682V135H104.488V137.646H107.274V135ZM120.689 142H118.603L117.091 139.872L115.565 142H113.479L116.041 138.43L113.591 135H115.677L117.091 136.974L118.505 135H120.577L118.127 138.416L120.689 142ZM126.418 135H128.224V142H126.418V141.174C125.877 141.855 125.116 142.196 124.136 142.196C123.203 142.196 122.4 141.841 121.728 141.132C121.066 140.413 120.734 139.536 120.734 138.5C120.734 137.464 121.066 136.591 121.728 135.882C122.4 135.163 123.203 134.804 124.136 134.804C125.116 134.804 125.877 135.145 126.418 135.826V135ZM123.086 139.928C123.45 140.292 123.912 140.474 124.472 140.474C125.032 140.474 125.494 140.292 125.858 139.928C126.232 139.555 126.418 139.079 126.418 138.5C126.418 137.921 126.232 137.45 125.858 137.086C125.494 136.713 125.032 136.526 124.472 136.526C123.912 136.526 123.45 136.713 123.086 137.086C122.722 137.45 122.54 137.921 122.54 138.5C122.54 139.079 122.722 139.555 123.086 139.928ZM133.936 134.804C134.879 134.804 135.681 135.163 136.344 135.882C137.016 136.591 137.352 137.464 137.352 138.5C137.352 139.536 137.016 140.413 136.344 141.132C135.681 141.841 134.879 142.196 133.936 142.196C132.956 142.196 132.2 141.855 131.668 141.174V144.8H129.862V135H131.668V135.826C132.2 135.145 132.956 134.804 133.936 134.804ZM132.214 139.928C132.578 140.292 133.04 140.474 133.6 140.474C134.16 140.474 134.622 140.292 134.986 139.928C135.359 139.555 135.546 139.079 135.546 138.5C135.546 137.921 135.359 137.45 134.986 137.086C134.622 136.713 134.16 136.526 133.6 136.526C133.04 136.526 132.578 136.713 132.214 137.086C131.85 137.45 131.668 137.921 131.668 138.5C131.668 139.079 131.85 139.555 132.214 139.928ZM141.79 137.24C142.583 137.24 143.222 137.459 143.708 137.898C144.193 138.327 144.436 138.901 144.436 139.62C144.436 140.339 144.193 140.917 143.708 141.356C143.222 141.785 142.583 142 141.79 142H138.626V135H140.432V137.24H141.79ZM141.804 140.404C142.056 140.404 142.261 140.334 142.42 140.194C142.588 140.045 142.672 139.853 142.672 139.62C142.672 139.387 142.588 139.195 142.42 139.046C142.261 138.897 142.056 138.822 141.804 138.822H140.432V140.404H141.804ZM151.731 140.306H152.907V143.876H151.143V142H145.571V135H147.377V140.306H149.925V135H151.731V140.306ZM159.094 135H160.9V142H159.094V141.174C158.553 141.855 157.792 142.196 156.812 142.196C155.879 142.196 155.076 141.841 154.404 141.132C153.742 140.413 153.41 139.536 153.41 138.5C153.41 137.464 153.742 136.591 154.404 135.882C155.076 135.163 155.879 134.804 156.812 134.804C157.792 134.804 158.553 135.145 159.094 135.826V135ZM155.762 139.928C156.126 140.292 156.588 140.474 157.148 140.474C157.708 140.474 158.17 140.292 158.534 139.928C158.908 139.555 159.094 139.079 159.094 138.5C159.094 137.921 158.908 137.45 158.534 137.086C158.17 136.713 157.708 136.526 157.148 136.526C156.588 136.526 156.126 136.713 155.762 137.086C155.398 137.45 155.216 137.921 155.216 138.5C155.216 139.079 155.398 139.555 155.762 139.928ZM167.858 135H169.664V142H167.858V141.174C167.317 141.855 166.556 142.196 165.576 142.196C164.643 142.196 163.84 141.841 163.168 141.132C162.505 140.413 162.174 139.536 162.174 138.5C162.174 137.464 162.505 136.591 163.168 135.882C163.84 135.163 164.643 134.804 165.576 134.804C166.556 134.804 167.317 135.145 167.858 135.826V135ZM164.526 139.928C164.89 140.292 165.352 140.474 165.912 140.474C166.472 140.474 166.934 140.292 167.298 139.928C167.671 139.555 167.858 139.079 167.858 138.5C167.858 137.921 167.671 137.45 167.298 137.086C166.934 136.713 166.472 136.526 165.912 136.526C165.352 136.526 164.89 136.713 164.526 137.086C164.162 137.45 163.98 137.921 163.98 138.5C163.98 139.079 164.162 139.555 164.526 139.928Z" fill="#20285A"/>
<path d="M0 160H375" stroke="#E5E6EA" stroke-linecap="round" stroke-linejoin="round"/>
<path d="M18.1211 160L182.215 160" stroke="#3042E9" stroke-width="2" stroke-linecap="round" stroke-linejoin="round"/>
<path d="M234.692 132.2V142H232.774V135.644L230.016 140.194H229.792L227.034 135.658V142H225.102V132.2H227.09L229.904 136.834L232.704 132.2H234.692ZM241.488 135H242.832V142H241.068V138.024L237.778 142H236.434V135H238.198V138.976L241.488 135ZM249.079 135H250.885V142H249.079V139.34H246.293V142H244.487V135H246.293V137.646H249.079V135ZM257.594 135H258.938V142H257.174V138.024L253.884 142H252.54V135H254.304V138.976L257.594 135ZM261.769 134.104V132.536H265.829V134.104H261.769ZM265.647 135H266.991V142H265.227V138.024L261.937 142H260.593V135H262.357V138.976L265.647 135ZM276.247 138.43C276.957 138.775 277.311 139.331 277.311 140.096C277.311 140.693 277.064 141.193 276.569 141.594C276.075 141.995 275.379 142.196 274.483 142.196C273.065 142.196 272.099 141.636 271.585 140.516L273.055 139.648C273.279 140.283 273.76 140.6 274.497 140.6C274.833 140.6 275.09 140.535 275.267 140.404C275.454 140.273 275.547 140.096 275.547 139.872C275.547 139.443 275.272 139.228 274.721 139.228H273.727V137.688H274.483C275.025 137.688 275.295 137.473 275.295 137.044C275.295 136.839 275.216 136.675 275.057 136.554C274.899 136.433 274.689 136.372 274.427 136.372C273.821 136.372 273.387 136.666 273.125 137.254L271.669 136.414C272.201 135.341 273.111 134.804 274.399 134.804C275.202 134.804 275.837 135.009 276.303 135.42C276.779 135.821 277.017 136.311 277.017 136.89C277.017 137.571 276.761 138.085 276.247 138.43ZM281.024 134.804C282.088 134.804 282.961 135.149 283.642 135.84C284.333 136.521 284.678 137.408 284.678 138.5C284.678 139.592 284.333 140.483 283.642 141.174C282.961 141.855 282.083 142.196 281.01 142.196C280.291 142.196 279.647 142.033 279.078 141.706C278.509 141.37 278.084 140.927 277.804 140.376L279.33 139.494C279.451 139.783 279.661 140.017 279.96 140.194C280.259 140.371 280.618 140.46 281.038 140.46C281.43 140.46 281.775 140.357 282.074 140.152C282.382 139.937 282.606 139.657 282.746 139.312H280.366V137.688H282.746C282.606 137.343 282.382 137.067 282.074 136.862C281.775 136.647 281.43 136.54 281.038 136.54C280.217 136.54 279.652 136.857 279.344 137.492L277.818 136.61C278.117 136.059 278.546 135.621 279.106 135.294C279.675 134.967 280.315 134.804 281.024 134.804ZM288.229 134.804C289.293 134.804 290.166 135.149 290.847 135.84C291.538 136.521 291.883 137.408 291.883 138.5C291.883 139.592 291.538 140.483 290.847 141.174C290.166 141.855 289.288 142.196 288.215 142.196C287.496 142.196 286.852 142.033 286.283 141.706C285.714 141.37 285.289 140.927 285.009 140.376L286.535 139.494C286.656 139.783 286.866 140.017 287.165 140.194C287.464 140.371 287.823 140.46 288.243 140.46C288.635 140.46 288.98 140.357 289.279 140.152C289.587 139.937 289.811 139.657 289.951 139.312H287.571V137.688H289.951C289.811 137.343 289.587 137.067 289.279 136.862C288.98 136.647 288.635 136.54 288.243 136.54C287.422 136.54 286.857 136.857 286.549 137.492L285.023 136.61C285.322 136.059 285.751 135.621 286.311 135.294C286.88 134.967 287.52 134.804 288.229 134.804ZM299.001 135V142H297.195V136.736H295.263V139.074C295.263 141.239 294.278 142.215 292.309 142V140.306C292.682 140.399 292.967 140.339 293.163 140.124C293.359 139.9 293.457 139.517 293.457 138.976V135H299.001ZM305.244 135H307.232L304.572 142V144.772H302.514V142L299.854 135H301.842L303.536 139.9L305.244 135ZM312.599 135H314.587L311.927 142V144.772H309.869V142L307.209 135H309.197L310.891 139.9L312.599 135ZM321.211 140.306H322.135V143.876H320.371V142H316.031V143.876H314.267V140.306H315.121C315.522 139.709 315.723 138.883 315.723 137.828V135H321.211V140.306ZM317.053 140.306H319.447V136.624H317.487V137.828C317.487 138.817 317.342 139.643 317.053 140.306Z" fill="#25272F" fill-opacity="0.5"/>
<g filter="url(#filter1_ddd_6370_5205)">
<g style="mix-blend-mode:multiply">
<rect x="205" y="205" width="60" height="20" rx="10" fill="#ECFDF3"/>
<path d="M219.731 218H218.999L216.575 214.256L214.151 218H213.407L216.203 213.68L213.563 209.6H214.295L216.575 213.116L218.843 209.6H219.575L216.935 213.68L219.731 218ZM223.211 211.868C224.123 211.868 224.855 212.164 225.407 212.756C225.967 213.348 226.247 214.096 226.247 215C226.247 215.904 225.967 216.652 225.407 217.244C224.847 217.836 224.111 218.132 223.199 218.132C222.559 218.132 222.003 217.996 221.531 217.724C221.059 217.444 220.715 217.068 220.499 216.596L221.015 216.284C221.175 216.676 221.443 216.988 221.819 217.22C222.203 217.444 222.663 217.556 223.199 217.556C223.879 217.556 224.435 217.344 224.867 216.92C225.307 216.488 225.559 215.944 225.623 215.288H222.515V214.712H225.623C225.559 214.048 225.311 213.504 224.879 213.08C224.447 212.656 223.891 212.444 223.211 212.444C222.715 212.444 222.275 212.556 221.891 212.78C221.515 213.004 221.235 213.312 221.051 213.704L220.523 213.404C220.763 212.932 221.119 212.56 221.591 212.288C222.063 212.008 222.603 211.868 223.211 211.868ZM231.781 214.904C232.485 215.136 232.837 215.616 232.837 216.344C232.837 216.824 232.677 217.22 232.357 217.532C232.045 217.844 231.589 218 230.989 218H228.085V212H230.761C231.329 212 231.769 212.148 232.081 212.444C232.393 212.74 232.549 213.116 232.549 213.572C232.549 214.212 232.293 214.656 231.781 214.904ZM230.761 212.588H228.685V214.664H230.761C231.145 214.664 231.437 214.572 231.637 214.388C231.837 214.204 231.937 213.944 231.937 213.608C231.937 213.288 231.833 213.04 231.625 212.864C231.425 212.68 231.137 212.588 230.761 212.588ZM230.989 217.412C231.389 217.412 231.697 217.316 231.913 217.124C232.129 216.932 232.237 216.664 232.237 216.32C232.237 215.984 232.125 215.724 231.901 215.54C231.685 215.348 231.381 215.252 230.989 215.252H228.685V217.412H230.989ZM238.995 212H239.523V218H238.911V213.044L235.095 218H234.567V212H235.167V216.956L238.995 212ZM242.724 210.956V210.428H245.76V210.956H242.724ZM246.204 212H246.732V218H246.12V213.044L242.304 218H241.776V212H242.376V216.956L246.204 212ZM253.329 212H253.941V218H253.329V215.288H249.585V218H248.985V212H249.585V214.712H253.329V212Z" fill="#039855"/>
</g>
<path d="M105.907 213.8C105.907 212.584 106.327 211.556 107.167 210.716C108.007 209.868 109.035 209.444 110.251 209.444C111.467 209.444 112.495 209.868 113.335 210.716C114.183 211.556 114.607 212.584 114.607 213.8C114.607 215.008 114.183 216.036 113.335 216.884C112.495 217.732 111.467 218.156 110.251 218.156C109.035 218.156 108.007 217.732 107.167 216.884C106.327 216.036 105.907 215.008 105.907 213.8ZM112.555 211.472C111.939 210.84 111.171 210.524 110.251 210.524C109.331 210.524 108.559 210.84 107.935 211.472C107.399 212.016 107.095 212.668 107.023 213.428H113.467C113.395 212.668 113.091 212.016 112.555 211.472ZM107.935 216.128C108.559 216.752 109.331 217.064 110.251 217.064C111.171 217.064 111.939 216.752 112.555 216.128C113.059 215.616 113.359 215.008 113.455 214.304H107.035C107.131 215.008 107.431 215.616 107.935 216.128ZM119.403 211.844C120.243 211.844 120.959 212.152 121.551 212.768C122.143 213.376 122.439 214.12 122.439 215C122.439 215.88 122.143 216.628 121.551 217.244C120.959 217.852 120.243 218.156 119.403 218.156C118.411 218.156 117.655 217.76 117.135 216.968V220.4H116.091V212H117.135V213.032C117.655 212.24 118.411 211.844 119.403 211.844ZM119.271 217.148C119.871 217.148 120.375 216.944 120.783 216.536C121.191 216.12 121.395 215.608 121.395 215C121.395 214.392 121.191 213.884 120.783 213.476C120.375 213.06 119.871 212.852 119.271 212.852C118.663 212.852 118.155 213.06 117.747 213.476C117.339 213.884 117.135 214.392 117.135 215C117.135 215.608 117.339 216.12 117.747 216.536C118.155 216.944 118.663 217.148 119.271 217.148ZM128.291 212H129.131V218H128.099V213.788L124.775 218H123.935V212H124.967V216.212L128.291 212ZM131.954 211.1V210.188H135.194V211.1H131.954ZM135.326 212H136.166V218H135.134V213.788L131.81 218H130.97V212H132.002V216.212L135.326 212ZM142.157 212H143.201V218H142.157V215.492H139.049V218H138.005V212H139.049V214.496H142.157V212ZM153.45 217.004H154.278V219.608H153.246V218H148.746V219.608H147.714V217.004H148.446C148.83 216.476 149.022 215.736 149.022 214.784V212H153.45V217.004ZM149.634 217.004H152.418V212.972H150.054V214.784C150.054 215.68 149.914 216.42 149.634 217.004ZM160.387 212H161.431V218H160.387V216.968C159.867 217.76 159.111 218.156 158.119 218.156C157.279 218.156 156.563 217.852 155.971 217.244C155.379 216.628 155.083 215.88 155.083 215C155.083 214.12 155.379 213.376 155.971 212.768C156.563 212.152 157.279 211.844 158.119 211.844C159.111 211.844 159.867 212.24 160.387 213.032V212ZM158.251 217.148C158.859 217.148 159.367 216.944 159.775 216.536C160.183 216.12 160.387 215.608 160.387 215C160.387 214.392 160.183 213.884 159.775 213.476C159.367 213.06 158.859 212.852 158.251 212.852C157.651 212.852 157.147 213.06 156.739 213.476C156.331 213.884 156.127 214.392 156.127 215C156.127 215.608 156.331 216.12 156.739 216.536C157.147 216.944 157.651 217.148 158.251 217.148ZM166.575 211.844C167.415 211.844 168.131 212.152 168.723 212.768C169.315 213.376 169.611 214.12 169.611 215C169.611 215.88 169.315 216.628 168.723 217.244C168.131 217.852 167.415 218.156 166.575 218.156C165.583 218.156 164.827 217.76 164.307 216.968V220.4H163.263V212H164.307V213.032C164.827 212.24 165.583 211.844 166.575 211.844ZM166.443 217.148C167.043 217.148 167.547 216.944 167.955 216.536C168.363 216.12 168.567 215.608 168.567 215C168.567 214.392 168.363 213.884 167.955 213.476C167.547 213.06 167.043 212.852 166.443 212.852C165.835 212.852 165.327 213.06 164.919 213.476C164.511 213.884 164.307 214.392 164.307 215C164.307 215.608 164.511 216.12 164.919 216.536C165.327 216.944 165.835 217.148 166.443 217.148ZM176.074 212H177.118V218H176.074V216.968C175.554 217.76 174.798 218.156 173.806 218.156C172.966 218.156 172.25 217.852 171.658 217.244C171.066 216.628 170.77 215.88 170.77 215C170.77 214.12 171.066 213.376 171.658 212.768C172.25 212.152 172.966 211.844 173.806 211.844C174.798 211.844 175.554 212.24 176.074 213.032V212ZM173.938 217.148C174.546 217.148 175.054 216.944 175.462 216.536C175.87 216.12 176.074 215.608 176.074 215C176.074 214.392 175.87 213.884 175.462 213.476C175.054 213.06 174.546 212.852 173.938 212.852C173.338 212.852 172.834 213.06 172.426 213.476C172.018 213.884 171.814 214.392 171.814 215C171.814 215.608 172.018 216.12 172.426 216.536C172.834 216.944 173.338 217.148 173.938 217.148ZM184.95 212V218H183.93V213.644L182.022 216.716H181.89L179.982 213.644V218H178.95V212H180.066L181.95 215.036L183.834 212H184.95ZM191.258 212V213.008H189.218V218H188.174V213.008H186.122V212H191.258ZM193.083 213.416C192.867 213.416 192.683 213.34 192.531 213.188C192.379 213.036 192.303 212.852 192.303 212.636C192.303 212.42 192.379 212.236 192.531 212.084C192.683 211.932 192.867 211.856 193.083 211.856C193.307 211.856 193.491 211.932 193.635 212.084C193.787 212.236 193.863 212.42 193.863 212.636C193.863 212.852 193.787 213.036 193.635 213.188C193.491 213.34 193.307 213.416 193.083 213.416ZM193.083 218.132C192.867 218.132 192.683 218.056 192.531 217.904C192.379 217.752 192.303 217.568 192.303 217.352C192.303 217.136 192.379 216.952 192.531 216.8C192.683 216.648 192.867 216.572 193.083 216.572C193.307 216.572 193.491 216.648 193.635 216.8C193.787 216.952 193.863 217.136 193.863 217.352C193.863 217.568 193.787 217.752 193.635 217.904C193.491 218.056 193.307 218.132 193.083 218.132Z" fill="black"/>
<path d="M95.0153 359.568C95.0689 371.493 97.4495 383.265 102.021 394.212C106.593 405.159 113.267 415.067 121.661 423.369C130.055 431.671 140.005 438.205 150.944 442.598C161.882 446.992 173.595 449.158 185.412 448.974C197.23 448.789 208.921 446.258 219.819 441.524C230.716 436.79 240.606 429.946 248.925 421.383C257.243 412.82 263.827 402.706 268.299 391.618C272.772 380.529 275.047 368.685 274.993 356.759" stroke="#EAECF0" stroke-width="20" stroke-linecap="round" stroke-linejoin="round"/>
<path d="M275 358C275 346.181 272.672 334.478 268.149 323.558C263.626 312.639 256.997 302.718 248.64 294.36C240.282 286.003 230.361 279.374 219.442 274.851C208.522 270.328 196.819 268 185 268C173.181 268 161.478 270.328 150.559 274.851C139.639 279.374 129.718 286.003 121.36 294.36C113.003 302.718 106.374 312.639 101.851 323.558C97.3279 334.478 95 346.181 95 358" stroke="#EAECF0" stroke-width="20" stroke-linecap="round" stroke-linejoin="round"/>
<path d="M129.046 376.5C129.046 375.487 129.396 374.63 130.096 373.93C130.796 373.223 131.653 372.87 132.666 372.87C133.679 372.87 134.536 373.223 135.236 373.93C135.943 374.63 136.296 375.487 136.296 376.5C136.296 377.507 135.943 378.363 135.236 379.07C134.536 379.777 133.679 380.13 132.666 380.13C131.653 380.13 130.796 379.777 130.096 379.07C129.396 378.363 129.046 377.507 129.046 376.5ZM134.586 374.56C134.073 374.033 133.433 373.77 132.666 373.77C131.899 373.77 131.256 374.033 130.736 374.56C130.289 375.013 130.036 375.557 129.976 376.19H135.346C135.286 375.557 135.033 375.013 134.586 374.56ZM130.736 378.44C131.256 378.96 131.899 379.22 132.666 379.22C133.433 379.22 134.073 378.96 134.586 378.44C135.006 378.013 135.256 377.507 135.336 376.92H129.986C130.066 377.507 130.316 378.013 130.736 378.44ZM140.334 374.87C141.034 374.87 141.631 375.127 142.124 375.64C142.617 376.147 142.864 376.767 142.864 377.5C142.864 378.233 142.617 378.857 142.124 379.37C141.631 379.877 141.034 380.13 140.334 380.13C139.507 380.13 138.877 379.8 138.444 379.14V382H137.574V375H138.444V375.86C138.877 375.2 139.507 374.87 140.334 374.87ZM140.224 379.29C140.724 379.29 141.144 379.12 141.484 378.78C141.824 378.433 141.994 378.007 141.994 377.5C141.994 376.993 141.824 376.57 141.484 376.23C141.144 375.883 140.724 375.71 140.224 375.71C139.717 375.71 139.294 375.883 138.954 376.23C138.614 376.57 138.444 376.993 138.444 377.5C138.444 378.007 138.614 378.433 138.954 378.78C139.294 379.12 139.717 379.29 140.224 379.29ZM145.052 378.97L144.402 381.4H143.652L144.052 378.97H145.052ZM153.501 379.37C152.988 379.877 152.364 380.13 151.631 380.13C150.898 380.13 150.274 379.877 149.761 379.37C149.254 378.863 149.001 378.24 149.001 377.5C149.001 376.76 149.254 376.137 149.761 375.63C150.274 375.123 150.898 374.87 151.631 374.87C152.364 374.87 152.988 375.123 153.501 375.63C154.014 376.137 154.271 376.76 154.271 377.5C154.271 378.24 154.014 378.863 153.501 379.37ZM151.631 379.28C152.131 379.28 152.551 379.11 152.891 378.77C153.231 378.43 153.401 378.007 153.401 377.5C153.401 376.993 153.231 376.57 152.891 376.23C152.551 375.89 152.131 375.72 151.631 375.72C151.138 375.72 150.721 375.89 150.381 376.23C150.041 376.57 149.871 376.993 149.871 377.5C149.871 378.007 150.041 378.43 150.381 378.77C150.721 379.11 151.138 379.28 151.631 379.28ZM158.307 374.87C159.007 374.87 159.603 375.127 160.097 375.64C160.59 376.147 160.837 376.767 160.837 377.5C160.837 378.233 160.59 378.857 160.097 379.37C159.603 379.877 159.007 380.13 158.307 380.13C157.48 380.13 156.85 379.8 156.417 379.14V382H155.547V375H156.417V375.86C156.85 375.2 157.48 374.87 158.307 374.87ZM158.197 379.29C158.697 379.29 159.117 379.12 159.457 378.78C159.797 378.433 159.967 378.007 159.967 377.5C159.967 376.993 159.797 376.57 159.457 376.23C159.117 375.883 158.697 375.71 158.197 375.71C157.69 375.71 157.267 375.883 156.927 376.23C156.587 376.57 156.417 376.993 156.417 377.5C156.417 378.007 156.587 378.433 156.927 378.78C157.267 379.12 157.69 379.29 158.197 379.29ZM166.119 375V380H165.249V375.84H163.279V377.88C163.279 378.7 163.112 379.273 162.779 379.6C162.452 379.92 161.989 380.053 161.389 380V379.18C161.729 379.227 161.982 379.153 162.149 378.96C162.322 378.76 162.409 378.393 162.409 377.86V375H166.119ZM171.907 379.37C171.394 379.877 170.771 380.13 170.037 380.13C169.304 380.13 168.681 379.877 168.167 379.37C167.661 378.863 167.407 378.24 167.407 377.5C167.407 376.76 167.661 376.137 168.167 375.63C168.681 375.123 169.304 374.87 170.037 374.87C170.771 374.87 171.394 375.123 171.907 375.63C172.421 376.137 172.677 376.76 172.677 377.5C172.677 378.24 172.421 378.863 171.907 379.37ZM170.037 379.28C170.537 379.28 170.957 379.11 171.297 378.77C171.637 378.43 171.807 378.007 171.807 377.5C171.807 376.993 171.637 376.57 171.297 376.23C170.957 375.89 170.537 375.72 170.037 375.72C169.544 375.72 169.127 375.89 168.787 376.23C168.447 376.57 168.277 376.993 168.277 377.5C168.277 378.007 168.447 378.43 168.787 378.77C169.127 379.11 169.544 379.28 170.037 379.28ZM177.233 375V375.84H174.823V380H173.953V375H177.233ZM180.356 376.8C180.856 376.8 181.269 376.95 181.596 377.25C181.929 377.543 182.096 377.927 182.096 378.4C182.096 378.873 181.929 379.26 181.596 379.56C181.269 379.853 180.856 380 180.356 380H178.246V375H179.116V376.8H180.356ZM182.746 375H183.616V380H182.746V375ZM180.356 379.19C180.603 379.19 180.809 379.12 180.976 378.98C181.149 378.833 181.236 378.64 181.236 378.4C181.236 378.16 181.149 377.967 180.976 377.82C180.809 377.673 180.603 377.6 180.356 377.6H179.116V379.19H180.356ZM188.655 375H189.525V380H188.655V377.91H186.065V380H185.195V375H186.065V377.08H188.655V375ZM198.189 380H197.169L195.769 378.11L194.359 380H193.339L195.259 377.43L193.449 375H194.479L195.769 376.74L197.059 375H198.079L196.279 377.42L198.189 380ZM203.034 375H203.904V380H203.034V379.14C202.601 379.8 201.971 380.13 201.144 380.13C200.444 380.13 199.848 379.877 199.354 379.37C198.861 378.857 198.614 378.233 198.614 377.5C198.614 376.767 198.861 376.147 199.354 375.64C199.848 375.127 200.444 374.87 201.144 374.87C201.971 374.87 202.601 375.2 203.034 375.86V375ZM201.254 379.29C201.761 379.29 202.184 379.12 202.524 378.78C202.864 378.433 203.034 378.007 203.034 377.5C203.034 376.993 202.864 376.57 202.524 376.23C202.184 375.883 201.761 375.71 201.254 375.71C200.754 375.71 200.334 375.883 199.994 376.23C199.654 376.57 199.484 376.993 199.484 377.5C199.484 378.007 199.654 378.433 199.994 378.78C200.334 379.12 200.754 379.29 201.254 379.29ZM208.233 374.87C208.933 374.87 209.529 375.127 210.023 375.64C210.516 376.147 210.763 376.767 210.763 377.5C210.763 378.233 210.516 378.857 210.023 379.37C209.529 379.877 208.933 380.13 208.233 380.13C207.406 380.13 206.776 379.8 206.343 379.14V382H205.472V375H206.343V375.86C206.776 375.2 207.406 374.87 208.233 374.87ZM208.123 379.29C208.623 379.29 209.043 379.12 209.383 378.78C209.723 378.433 209.893 378.007 209.893 377.5C209.893 376.993 209.723 376.57 209.383 376.23C209.043 375.883 208.623 375.71 208.123 375.71C207.616 375.71 207.193 375.883 206.853 376.23C206.513 376.57 206.343 376.993 206.343 377.5C206.343 378.007 206.513 378.433 206.853 378.78C207.193 379.12 207.616 379.29 208.123 379.29ZM214.161 376.8C214.661 376.8 215.074 376.95 215.401 377.25C215.734 377.543 215.901 377.927 215.901 378.4C215.901 378.873 215.734 379.26 215.401 379.56C215.074 379.853 214.661 380 214.161 380H212.051V375H212.921V376.8H214.161ZM214.161 379.19C214.407 379.19 214.614 379.12 214.781 378.98C214.954 378.833 215.041 378.64 215.041 378.4C215.041 378.16 214.954 377.967 214.781 377.82C214.614 377.673 214.407 377.6 214.161 377.6H212.921V379.19H214.161ZM221.286 379.17H222.106V381.34H221.246V380H217.086V375H217.956V379.17H220.416V375H221.286V379.17ZM227.228 375H228.098V380H227.228V379.14C226.794 379.8 226.164 380.13 225.338 380.13C224.638 380.13 224.041 379.877 223.548 379.37C223.054 378.857 222.808 378.233 222.808 377.5C222.808 376.767 223.054 376.147 223.548 375.64C224.041 375.127 224.638 374.87 225.338 374.87C226.164 374.87 226.794 375.2 227.228 375.86V375ZM225.448 379.29C225.954 379.29 226.378 379.12 226.718 378.78C227.058 378.433 227.228 378.007 227.228 377.5C227.228 376.993 227.058 376.57 226.718 376.23C226.378 375.883 225.954 375.71 225.448 375.71C224.948 375.71 224.528 375.883 224.188 376.23C223.848 376.57 223.678 376.993 223.678 377.5C223.678 378.007 223.848 378.433 224.188 378.78C224.528 379.12 224.948 379.29 225.448 379.29ZM233.806 375H234.676V380H233.806V379.14C233.373 379.8 232.743 380.13 231.916 380.13C231.216 380.13 230.619 379.877 230.126 379.37C229.633 378.857 229.386 378.233 229.386 377.5C229.386 376.767 229.633 376.147 230.126 375.64C230.619 375.127 231.216 374.87 231.916 374.87C232.743 374.87 233.373 375.2 233.806 375.86V375ZM232.026 379.29C232.533 379.29 232.956 379.12 233.296 378.78C233.636 378.433 233.806 378.007 233.806 377.5C233.806 376.993 233.636 376.57 233.296 376.23C232.956 375.883 232.533 375.71 232.026 375.71C231.526 375.71 231.106 375.883 230.766 376.23C230.426 376.57 230.256 376.993 230.256 377.5C230.256 378.007 230.426 378.433 230.766 378.78C231.106 379.12 231.526 379.29 232.026 379.29Z" fill="#20285A"/>
<path d="M95 358C95 338.394 101.196 319.324 112.646 303.69C124.095 288.055 140.173 276.713 158.433 271.386" stroke="#20285A" stroke-width="20" stroke-linecap="round" stroke-linejoin="round"/>
<path d="M159.177 350V346.704L166.825 338.832C168.531 337.04 169.385 335.547 169.385 334.352C169.385 333.477 169.107 332.773 168.553 332.24C168.019 331.707 167.326 331.44 166.473 331.44C164.787 331.44 163.539 332.315 162.729 334.064L159.017 331.888C159.721 330.352 160.734 329.179 162.057 328.368C163.379 327.557 164.83 327.152 166.409 327.152C168.435 327.152 170.174 327.792 171.625 329.072C173.075 330.331 173.801 332.037 173.801 334.192C173.801 336.517 172.574 338.907 170.121 341.36L165.737 345.744H174.153V350H159.177ZM181.084 327.6H184.924V350H180.508V332.272L176.284 333.456L175.196 329.68L181.084 327.6ZM197.907 336.208C196.883 337.211 195.603 337.712 194.067 337.712C192.531 337.712 191.24 337.2 190.195 336.176C189.171 335.152 188.659 333.904 188.659 332.432C188.659 330.96 189.171 329.712 190.195 328.688C191.24 327.664 192.531 327.152 194.067 327.152C195.603 327.152 196.883 327.664 197.907 328.688C198.931 329.691 199.443 330.939 199.443 332.432C199.443 333.925 198.931 335.184 197.907 336.208ZM190.931 346.608L205.523 330.384L207.475 331.472L192.851 347.728L190.931 346.608ZM192.595 333.904C192.979 334.288 193.459 334.48 194.035 334.48C194.611 334.48 195.091 334.288 195.475 333.904C195.859 333.499 196.051 333.008 196.051 332.432C196.051 331.856 195.859 331.376 195.475 330.992C195.091 330.608 194.611 330.416 194.035 330.416C193.459 330.416 192.979 330.608 192.595 330.992C192.232 331.376 192.051 331.856 192.051 332.432C192.051 333.008 192.232 333.499 192.595 333.904ZM208.723 348.848C207.699 349.872 206.419 350.384 204.883 350.384C203.347 350.384 202.067 349.872 201.043 348.848C200.019 347.824 199.507 346.576 199.507 345.104C199.507 343.632 200.019 342.384 201.043 341.36C202.067 340.336 203.347 339.824 204.883 339.824C206.419 339.824 207.699 340.336 208.723 341.36C209.747 342.384 210.259 343.632 210.259 345.104C210.259 346.576 209.747 347.824 208.723 348.848ZM203.443 346.576C203.827 346.96 204.307 347.152 204.883 347.152C205.459 347.152 205.928 346.949 206.291 346.544C206.675 346.139 206.867 345.659 206.867 345.104C206.867 344.528 206.675 344.048 206.291 343.664C205.928 343.259 205.459 343.056 204.883 343.056C204.307 343.056 203.827 343.259 203.443 343.664C203.08 344.048 202.899 344.528 202.899 345.104C202.899 345.68 203.08 346.171 203.443 346.576Z" fill="#20285A"/>
<path d="M80.3971 491.11C79.3438 491.11 78.4738 490.763 77.7871 490.07C77.1004 489.37 76.7571 488.513 76.7571 487.5C76.7571 486.487 77.1004 485.633 77.7871 484.94C78.4738 484.24 79.3438 483.89 80.3971 483.89C81.0371 483.89 81.6238 484.043 82.1571 484.35C82.6904 484.65 83.1038 485.057 83.3971 485.57L82.9271 485.84C82.6938 485.407 82.3504 485.06 81.8971 484.8C81.4438 484.533 80.9438 484.4 80.3971 484.4C79.4904 484.4 78.7438 484.7 78.1571 485.3C77.5771 485.893 77.2871 486.627 77.2871 487.5C77.2871 488.373 77.5771 489.11 78.1571 489.71C78.7438 490.303 79.4904 490.6 80.3971 490.6C80.9438 490.6 81.4471 490.467 81.9071 490.2C82.3671 489.933 82.7138 489.577 82.9471 489.13L83.4171 489.4C83.1304 489.92 82.7171 490.337 82.1771 490.65C81.6371 490.957 81.0438 491.11 80.3971 491.11ZM88.4869 486H89.0169L86.9069 491V492.88H86.2969V491L84.1769 486H84.7169L86.5969 490.48L88.4869 486ZM93.8345 486H94.3645L92.2545 491V492.88H91.6445V491L89.5245 486H90.0645L91.9445 490.48L93.8345 486ZM99.2695 486V491H98.7695V486.49H96.2495V488.9C96.2495 489.713 96.0995 490.277 95.7995 490.59C95.4995 490.903 95.0895 491.04 94.5695 491V490.53C94.9695 490.563 95.2661 490.457 95.4595 490.21C95.6528 489.963 95.7495 489.527 95.7495 488.9V486H99.2695ZM105.155 490.51H105.855V492.34H105.345V491H101.025V492.34H100.515V490.51H101.095C101.462 490.01 101.645 489.34 101.645 488.5V486H105.155V490.51ZM101.715 490.51H104.645V486.49H102.145V488.5C102.145 489.32 102.002 489.99 101.715 490.51ZM113.62 486V486.49H111.8V491H111.3V486.49H109.48V486H113.62ZM116.869 491.11C116.135 491.11 115.512 490.86 114.999 490.36C114.492 489.853 114.239 489.233 114.239 488.5C114.239 487.767 114.492 487.15 114.999 486.65C115.512 486.143 116.135 485.89 116.869 485.89C117.595 485.89 118.212 486.143 118.719 486.65C119.232 487.15 119.489 487.767 119.489 488.5C119.489 489.233 119.232 489.853 118.719 490.36C118.212 490.86 117.595 491.11 116.869 491.11ZM115.359 490.01C115.772 490.423 116.275 490.63 116.869 490.63C117.462 490.63 117.962 490.423 118.369 490.01C118.775 489.597 118.979 489.093 118.979 488.5C118.979 487.907 118.775 487.403 118.369 486.99C117.962 486.577 117.462 486.37 116.869 486.37C116.275 486.37 115.772 486.577 115.359 486.99C114.952 487.403 114.749 487.907 114.749 488.5C114.749 489.093 114.952 489.597 115.359 490.01ZM123.232 491.11C122.499 491.11 121.875 490.86 121.362 490.36C120.855 489.853 120.602 489.233 120.602 488.5C120.602 487.767 120.855 487.15 121.362 486.65C121.875 486.143 122.499 485.89 123.232 485.89C123.959 485.89 124.575 486.143 125.082 486.65C125.595 487.15 125.852 487.767 125.852 488.5C125.852 489.233 125.595 489.853 125.082 490.36C124.575 490.86 123.959 491.11 123.232 491.11ZM121.722 490.01C122.135 490.423 122.639 490.63 123.232 490.63C123.825 490.63 124.325 490.423 124.732 490.01C125.139 489.597 125.342 489.093 125.342 488.5C125.342 487.907 125.139 487.403 124.732 486.99C124.325 486.577 123.825 486.37 123.232 486.37C122.639 486.37 122.135 486.577 121.722 486.99C121.315 487.403 121.112 487.907 121.112 488.5C121.112 489.093 121.315 489.597 121.722 490.01ZM131.335 490.51H132.135V492.34H131.625V491H127.305V486H127.805V490.51H130.825V486H131.335V490.51ZM135.578 491.11C134.844 491.11 134.221 490.86 133.708 490.36C133.201 489.853 132.948 489.233 132.948 488.5C132.948 487.767 133.201 487.15 133.708 486.65C134.221 486.143 134.844 485.89 135.578 485.89C136.304 485.89 136.921 486.143 137.428 486.65C137.941 487.15 138.198 487.767 138.198 488.5C138.198 489.233 137.941 489.853 137.428 490.36C136.921 490.86 136.304 491.11 135.578 491.11ZM134.068 490.01C134.481 490.423 134.984 490.63 135.578 490.63C136.171 490.63 136.671 490.423 137.078 490.01C137.484 489.597 137.688 489.093 137.688 488.5C137.688 487.907 137.484 487.403 137.078 486.99C136.671 486.577 136.171 486.37 135.578 486.37C134.984 486.37 134.481 486.577 134.068 486.99C133.661 487.403 133.458 487.907 133.458 488.5C133.458 489.093 133.661 489.597 134.068 490.01ZM141.941 491.11C141.208 491.11 140.584 490.86 140.071 490.36C139.564 489.853 139.311 489.233 139.311 488.5C139.311 487.767 139.564 487.15 140.071 486.65C140.584 486.143 141.208 485.89 141.941 485.89C142.668 485.89 143.284 486.143 143.791 486.65C144.304 487.15 144.561 487.767 144.561 488.5C144.561 489.233 144.304 489.853 143.791 490.36C143.284 490.86 142.668 491.11 141.941 491.11ZM140.431 490.01C140.844 490.423 141.348 490.63 141.941 490.63C142.534 490.63 143.034 490.423 143.441 490.01C143.848 489.597 144.051 489.093 144.051 488.5C144.051 487.907 143.848 487.403 143.441 486.99C143.034 486.577 142.534 486.37 141.941 486.37C141.348 486.37 140.844 486.577 140.431 486.99C140.024 487.403 139.821 487.907 139.821 488.5C139.821 489.093 140.024 489.597 140.431 490.01ZM149.879 486V491H149.379V486.49H146.859V488.9C146.859 489.713 146.709 490.277 146.409 490.59C146.109 490.903 145.699 491.04 145.179 491V490.53C145.579 490.563 145.875 490.457 146.069 490.21C146.262 489.963 146.359 489.527 146.359 488.9V486H149.879ZM153.955 491.11C153.221 491.11 152.598 490.86 152.085 490.36C151.578 489.853 151.325 489.233 151.325 488.5C151.325 487.767 151.578 487.15 152.085 486.65C152.598 486.143 153.221 485.89 153.955 485.89C154.681 485.89 155.298 486.143 155.805 486.65C156.318 487.15 156.575 487.767 156.575 488.5C156.575 489.233 156.318 489.853 155.805 490.36C155.298 490.86 154.681 491.11 153.955 491.11ZM152.445 490.01C152.858 490.423 153.361 490.63 153.955 490.63C154.548 490.63 155.048 490.423 155.455 490.01C155.861 489.597 156.065 489.093 156.065 488.5C156.065 487.907 155.861 487.403 155.455 486.99C155.048 486.577 154.548 486.37 153.955 486.37C153.361 486.37 152.858 486.577 152.445 486.99C152.038 487.403 151.835 487.907 151.835 488.5C151.835 489.093 152.038 489.597 152.445 490.01ZM161.893 486V491H161.393V486.49H158.873V488.9C158.873 489.713 158.723 490.277 158.423 490.59C158.123 490.903 157.713 491.04 157.193 491V490.53C157.593 490.563 157.889 490.457 158.083 490.21C158.276 489.963 158.373 489.527 158.373 488.9V486H161.893ZM170.654 491H170.044L168.354 488.82L166.664 491H166.054L168.054 488.43L166.174 486H166.784L168.354 488.03L169.934 486H170.534L168.664 488.42L170.654 491ZM175.603 486H176.043V491H175.533V486.87L172.353 491H171.913V486H172.413V490.13L175.603 486ZM178.626 485.13V484.69H181.156V485.13H178.626ZM181.526 486H181.966V491H181.456V486.87L178.276 491H177.836V486H178.336V490.13L181.526 486ZM186.05 491.11C185.297 491.11 184.67 490.86 184.17 490.36C183.67 489.86 183.42 489.24 183.42 488.5C183.42 487.76 183.67 487.14 184.17 486.64C184.67 486.14 185.297 485.89 186.05 485.89C186.537 485.89 186.977 486.007 187.37 486.24C187.764 486.467 188.05 486.777 188.23 487.17L187.82 487.41C187.674 487.09 187.44 486.837 187.12 486.65C186.807 486.463 186.45 486.37 186.05 486.37C185.45 486.37 184.947 486.577 184.54 486.99C184.134 487.397 183.93 487.9 183.93 488.5C183.93 489.1 184.134 489.607 184.54 490.02C184.947 490.427 185.45 490.63 186.05 490.63C186.45 490.63 186.807 490.537 187.12 490.35C187.44 490.163 187.684 489.91 187.85 489.59L188.27 489.84C188.07 490.227 187.77 490.537 187.37 490.77C186.977 490.997 186.537 491.11 186.05 491.11ZM191.376 485.89C192.136 485.89 192.746 486.137 193.206 486.63C193.672 487.123 193.906 487.747 193.906 488.5C193.906 489.253 193.672 489.877 193.206 490.37C192.739 490.863 192.126 491.11 191.366 491.11C190.832 491.11 190.369 490.997 189.976 490.77C189.582 490.537 189.296 490.223 189.116 489.83L189.546 489.57C189.679 489.897 189.902 490.157 190.216 490.35C190.536 490.537 190.919 490.63 191.366 490.63C191.932 490.63 192.396 490.453 192.756 490.1C193.122 489.74 193.332 489.287 193.386 488.74H190.796V488.26H193.386C193.332 487.707 193.126 487.253 192.766 486.9C192.406 486.547 191.942 486.37 191.376 486.37C190.962 486.37 190.596 486.463 190.276 486.65C189.962 486.837 189.729 487.093 189.576 487.42L189.136 487.17C189.336 486.777 189.632 486.467 190.026 486.24C190.419 486.007 190.869 485.89 191.376 485.89ZM198.974 486H199.484V491H198.974V488.74H195.854V491H195.354V486H195.854V488.26H198.974V486ZM206.484 491.11C205.75 491.11 205.127 490.86 204.614 490.36C204.107 489.853 203.854 489.233 203.854 488.5C203.854 487.767 204.107 487.15 204.614 486.65C205.127 486.143 205.75 485.89 206.484 485.89C207.21 485.89 207.827 486.143 208.334 486.65C208.847 487.15 209.104 487.767 209.104 488.5C209.104 489.233 208.847 489.853 208.334 490.36C207.827 490.86 207.21 491.11 206.484 491.11ZM204.974 490.01C205.387 490.423 205.89 490.63 206.484 490.63C207.077 490.63 207.577 490.423 207.984 490.01C208.39 489.597 208.594 489.093 208.594 488.5C208.594 487.907 208.39 487.403 207.984 486.99C207.577 486.577 207.077 486.37 206.484 486.37C205.89 486.37 205.387 486.577 204.974 486.99C204.567 487.403 204.364 487.907 204.364 488.5C204.364 489.093 204.567 489.597 204.974 490.01ZM213.687 486V486.49H211.057V491H210.557V486H213.687ZM218.451 486H218.961V491H218.451V488.74H215.331V491H214.831V486H215.331V488.26H218.451V486ZM223.044 491.11C222.311 491.11 221.688 490.86 221.174 490.36C220.668 489.853 220.414 489.233 220.414 488.5C220.414 487.767 220.668 487.15 221.174 486.65C221.688 486.143 222.311 485.89 223.044 485.89C223.771 485.89 224.388 486.143 224.894 486.65C225.408 487.15 225.664 487.767 225.664 488.5C225.664 489.233 225.408 489.853 224.894 490.36C224.388 490.86 223.771 491.11 223.044 491.11ZM221.534 490.01C221.948 490.423 222.451 490.63 223.044 490.63C223.638 490.63 224.138 490.423 224.544 490.01C224.951 489.597 225.154 489.093 225.154 488.5C225.154 487.907 224.951 487.403 224.544 486.99C224.138 486.577 223.638 486.37 223.044 486.37C222.451 486.37 221.948 486.577 221.534 486.99C221.128 487.403 220.924 487.907 220.924 488.5C220.924 489.093 221.128 489.597 221.534 490.01ZM229.408 491.11C228.674 491.11 228.051 490.86 227.538 490.36C227.031 489.853 226.778 489.233 226.778 488.5C226.778 487.767 227.031 487.15 227.538 486.65C228.051 486.143 228.674 485.89 229.408 485.89C230.134 485.89 230.751 486.143 231.258 486.65C231.771 487.15 232.028 487.767 232.028 488.5C232.028 489.233 231.771 489.853 231.258 490.36C230.751 490.86 230.134 491.11 229.408 491.11ZM227.898 490.01C228.311 490.423 228.814 490.63 229.408 490.63C230.001 490.63 230.501 490.423 230.908 490.01C231.314 489.597 231.518 489.093 231.518 488.5C231.518 487.907 231.314 487.403 230.908 486.99C230.501 486.577 230.001 486.37 229.408 486.37C228.814 486.37 228.311 486.577 227.898 486.99C227.491 487.403 227.288 487.907 227.288 488.5C227.288 489.093 227.491 489.597 227.898 490.01ZM233.906 486.77C233.819 486.857 233.712 486.9 233.586 486.9C233.459 486.9 233.352 486.857 233.266 486.77C233.179 486.683 233.136 486.577 233.136 486.45C233.136 486.323 233.179 486.217 233.266 486.13C233.352 486.043 233.459 486 233.586 486C233.712 486 233.819 486.043 233.906 486.13C233.992 486.217 234.036 486.323 234.036 486.45C234.036 486.577 233.992 486.683 233.906 486.77ZM233.906 490.97C233.819 491.057 233.712 491.1 233.586 491.1C233.459 491.1 233.352 491.057 233.266 490.97C233.179 490.883 233.136 490.777 233.136 490.65C233.136 490.523 233.179 490.417 233.266 490.33C233.352 490.243 233.459 490.2 233.586 490.2C233.712 490.2 233.819 490.243 233.906 490.33C233.992 490.417 234.036 490.523 234.036 490.65C234.036 490.777 233.992 490.883 233.906 490.97ZM238.241 491V490.52L240.811 487.88C241.564 487.1 241.941 486.44 241.941 485.9C241.941 485.433 241.794 485.067 241.501 484.8C241.207 484.533 240.841 484.4 240.401 484.4C239.621 484.4 239.064 484.753 238.731 485.46L238.281 485.19C238.487 484.77 238.774 484.45 239.141 484.23C239.514 484.003 239.934 483.89 240.401 483.89C240.967 483.89 241.454 484.07 241.861 484.43C242.274 484.79 242.481 485.28 242.481 485.9C242.481 486.3 242.364 486.69 242.131 487.07C241.904 487.443 241.584 487.84 241.171 488.26L239.001 490.49H242.641V491H238.241ZM248.316 490.13C247.856 490.783 247.213 491.11 246.386 491.11C245.56 491.11 244.916 490.783 244.456 490.13C243.996 489.477 243.766 488.6 243.766 487.5C243.766 486.4 243.996 485.523 244.456 484.87C244.916 484.217 245.56 483.89 246.386 483.89C247.213 483.89 247.856 484.217 248.316 484.87C248.776 485.523 249.006 486.4 249.006 487.5C249.006 488.6 248.776 489.477 248.316 490.13ZM244.856 489.79C245.223 490.33 245.733 490.6 246.386 490.6C247.04 490.6 247.55 490.33 247.916 489.79C248.283 489.243 248.466 488.48 248.466 487.5C248.466 486.52 248.283 485.76 247.916 485.22C247.55 484.673 247.04 484.4 246.386 484.4C245.733 484.4 245.223 484.673 244.856 485.22C244.49 485.76 244.306 486.52 244.306 487.5C244.306 488.48 244.49 489.243 244.856 489.79ZM250.118 491V490.52L252.688 487.88C253.441 487.1 253.818 486.44 253.818 485.9C253.818 485.433 253.671 485.067 253.378 484.8C253.084 484.533 252.718 484.4 252.278 484.4C251.498 484.4 250.941 484.753 250.608 485.46L250.158 485.19C250.364 484.77 250.651 484.45 251.018 484.23C251.391 484.003 251.811 483.89 252.278 483.89C252.844 483.89 253.331 484.07 253.738 484.43C254.151 484.79 254.358 485.28 254.358 485.9C254.358 486.3 254.241 486.69 254.008 487.07C253.781 487.443 253.461 487.84 253.048 488.26L250.878 490.49H254.518V491H250.118ZM258.013 486.91C258.6 486.97 259.083 487.18 259.463 487.54C259.843 487.9 260.033 488.38 260.033 488.98C260.033 489.633 259.81 490.153 259.363 490.54C258.917 490.92 258.37 491.11 257.723 491.11C257.203 491.11 256.743 490.993 256.343 490.76C255.943 490.527 255.66 490.2 255.493 489.78L255.933 489.52C256.06 489.867 256.28 490.133 256.593 490.32C256.907 490.507 257.283 490.6 257.723 490.6C258.243 490.6 258.67 490.453 259.003 490.16C259.337 489.867 259.503 489.473 259.503 488.98C259.503 488.487 259.333 488.093 258.993 487.8C258.66 487.507 258.23 487.36 257.703 487.36V487.35L257.693 487.36H257.553L257.323 487.01L259.093 484.5H255.673V484H259.703V484.5L258.013 486.91ZM261.584 492H261.184L265.184 483H265.584L261.584 492ZM271.357 490.13C270.897 490.783 270.254 491.11 269.427 491.11C268.601 491.11 267.957 490.783 267.497 490.13C267.037 489.477 266.807 488.6 266.807 487.5C266.807 486.4 267.037 485.523 267.497 484.87C267.957 484.217 268.601 483.89 269.427 483.89C270.254 483.89 270.897 484.217 271.357 484.87C271.817 485.523 272.047 486.4 272.047 487.5C272.047 488.6 271.817 489.477 271.357 490.13ZM267.897 489.79C268.264 490.33 268.774 490.6 269.427 490.6C270.081 490.6 270.591 490.33 270.957 489.79C271.324 489.243 271.507 488.48 271.507 487.5C271.507 486.52 271.324 485.76 270.957 485.22C270.591 484.673 270.081 484.4 269.427 484.4C268.774 484.4 268.264 484.673 267.897 485.22C267.531 485.76 267.347 486.52 267.347 487.5C267.347 488.48 267.531 489.243 267.897 489.79ZM275.486 486.85C276.14 486.85 276.69 487.043 277.136 487.43C277.59 487.81 277.816 488.327 277.816 488.98C277.816 489.633 277.59 490.153 277.136 490.54C276.69 490.92 276.14 491.11 275.486 491.11C274.973 491.11 274.513 490.987 274.106 490.74C273.706 490.493 273.43 490.147 273.276 489.7L273.726 489.44C273.84 489.813 274.053 490.1 274.366 490.3C274.68 490.5 275.053 490.6 275.486 490.6C276.013 490.6 276.443 490.453 276.776 490.16C277.116 489.867 277.286 489.473 277.286 488.98C277.286 488.487 277.116 488.093 276.776 487.8C276.443 487.507 276.013 487.36 275.486 487.36H273.616L273.856 484H277.556V484.5H274.326L274.166 486.85H275.486ZM279.316 492H278.916L282.916 483H283.316L279.316 492ZM289.09 490.13C288.63 490.783 287.986 491.11 287.16 491.11C286.333 491.11 285.69 490.783 285.23 490.13C284.77 489.477 284.54 488.6 284.54 487.5C284.54 486.4 284.77 485.523 285.23 484.87C285.69 484.217 286.333 483.89 287.16 483.89C287.986 483.89 288.63 484.217 289.09 484.87C289.55 485.523 289.78 486.4 289.78 487.5C289.78 488.6 289.55 489.477 289.09 490.13ZM285.63 489.79C285.996 490.33 286.506 490.6 287.16 490.6C287.813 490.6 288.323 490.33 288.69 489.79C289.056 489.243 289.24 488.48 289.24 487.5C289.24 486.52 289.056 485.76 288.69 485.22C288.323 484.673 287.813 484.4 287.16 484.4C286.506 484.4 285.996 484.673 285.63 485.22C285.263 485.76 285.08 486.52 285.08 487.5C285.08 488.48 285.263 489.243 285.63 489.79ZM292.393 484H292.843V491H292.313V484.58L290.693 485.09L290.563 484.63L292.393 484Z" fill="#314275"/>
<rect width="271" height="40" transform="translate(50 525)" fill="#20285A"/>
<path d="M123.336 540.2V542.048H120.69V550H118.758V542.048H116.126V540.2H123.336ZM129.023 549.132C128.305 549.841 127.427 550.196 126.391 550.196C125.355 550.196 124.478 549.841 123.759 549.132C123.05 548.413 122.695 547.536 122.695 546.5C122.695 545.464 123.05 544.591 123.759 543.882C124.478 543.163 125.355 542.804 126.391 542.804C127.427 542.804 128.305 543.163 129.023 543.882C129.742 544.591 130.101 545.464 130.101 546.5C130.101 547.536 129.742 548.413 129.023 549.132ZM125.033 547.886C125.397 548.25 125.85 548.432 126.391 548.432C126.933 548.432 127.385 548.25 127.749 547.886C128.113 547.522 128.295 547.06 128.295 546.5C128.295 545.94 128.113 545.478 127.749 545.114C127.385 544.75 126.933 544.568 126.391 544.568C125.85 544.568 125.397 544.75 125.033 545.114C124.679 545.478 124.501 545.94 124.501 546.5C124.501 547.06 124.679 547.522 125.033 547.886ZM137.336 549.132C136.617 549.841 135.74 550.196 134.704 550.196C133.668 550.196 132.791 549.841 132.072 549.132C131.363 548.413 131.008 547.536 131.008 546.5C131.008 545.464 131.363 544.591 132.072 543.882C132.791 543.163 133.668 542.804 134.704 542.804C135.74 542.804 136.617 543.163 137.336 543.882C138.055 544.591 138.414 545.464 138.414 546.5C138.414 547.536 138.055 548.413 137.336 549.132ZM133.346 547.886C133.71 548.25 134.163 548.432 134.704 548.432C135.245 548.432 135.698 548.25 136.062 547.886C136.426 547.522 136.608 547.06 136.608 546.5C136.608 545.94 136.426 545.478 136.062 545.114C135.698 544.75 135.245 544.568 134.704 544.568C134.163 544.568 133.71 544.75 133.346 545.114C132.991 545.478 132.814 545.94 132.814 546.5C132.814 547.06 132.991 547.522 133.346 547.886ZM145.844 548.306H147.02V551.876H145.256V550H139.684V543H141.49V548.306H144.038V543H145.844V548.306ZM153.852 549.132C153.133 549.841 152.256 550.196 151.22 550.196C150.184 550.196 149.306 549.841 148.588 549.132C147.878 548.413 147.524 547.536 147.524 546.5C147.524 545.464 147.878 544.591 148.588 543.882C149.306 543.163 150.184 542.804 151.22 542.804C152.256 542.804 153.133 543.163 153.852 543.882C154.57 544.591 154.93 545.464 154.93 546.5C154.93 547.536 154.57 548.413 153.852 549.132ZM149.862 547.886C150.226 548.25 150.678 548.432 151.22 548.432C151.761 548.432 152.214 548.25 152.578 547.886C152.942 547.522 153.124 547.06 153.124 546.5C153.124 545.94 152.942 545.478 152.578 545.114C152.214 544.75 151.761 544.568 151.22 544.568C150.678 544.568 150.226 544.75 149.862 545.114C149.507 545.478 149.33 545.94 149.33 546.5C149.33 547.06 149.507 547.522 149.862 547.886ZM162.164 549.132C161.445 549.841 160.568 550.196 159.532 550.196C158.496 550.196 157.619 549.841 156.9 549.132C156.191 548.413 155.836 547.536 155.836 546.5C155.836 545.464 156.191 544.591 156.9 543.882C157.619 543.163 158.496 542.804 159.532 542.804C160.568 542.804 161.445 543.163 162.164 543.882C162.883 544.591 163.242 545.464 163.242 546.5C163.242 547.536 162.883 548.413 162.164 549.132ZM158.174 547.886C158.538 548.25 158.991 548.432 159.532 548.432C160.073 548.432 160.526 548.25 160.89 547.886C161.254 547.522 161.436 547.06 161.436 546.5C161.436 545.94 161.254 545.478 160.89 545.114C160.526 544.75 160.073 544.568 159.532 544.568C158.991 544.568 158.538 544.75 158.174 545.114C157.819 545.478 157.642 545.94 157.642 546.5C157.642 547.06 157.819 547.522 158.174 547.886ZM170.341 543V550H168.535V544.736H166.603V547.074C166.603 549.239 165.618 550.215 163.649 550V548.306C164.022 548.399 164.307 548.339 164.503 548.124C164.699 547.9 164.797 547.517 164.797 546.976V543H170.341ZM177.941 549.132C177.223 549.841 176.345 550.196 175.309 550.196C174.273 550.196 173.396 549.841 172.677 549.132C171.968 548.413 171.613 547.536 171.613 546.5C171.613 545.464 171.968 544.591 172.677 543.882C173.396 543.163 174.273 542.804 175.309 542.804C176.345 542.804 177.223 543.163 177.941 543.882C178.66 544.591 179.019 545.464 179.019 546.5C179.019 547.536 178.66 548.413 177.941 549.132ZM173.951 547.886C174.315 548.25 174.768 548.432 175.309 548.432C175.851 548.432 176.303 548.25 176.667 547.886C177.031 547.522 177.213 547.06 177.213 546.5C177.213 545.94 177.031 545.478 176.667 545.114C176.303 544.75 175.851 544.568 175.309 544.568C174.768 544.568 174.315 544.75 173.951 545.114C173.597 545.478 173.419 545.94 173.419 546.5C173.419 547.06 173.597 547.522 173.951 547.886ZM186.118 543V550H184.312V544.736H182.38V547.074C182.38 549.239 181.395 550.215 179.426 550V548.306C179.799 548.399 180.084 548.339 180.28 548.124C180.476 547.9 180.574 547.517 180.574 546.976V543H186.118ZM199.459 543H201.265V550H191.255V543H193.061V548.306H195.357V543H197.163V548.306H199.459V543ZM207.971 543H209.315V550H207.551V546.024L204.261 550H202.917V543H204.681V546.976L207.971 543ZM215.562 543H217.368V550H215.562V547.34H212.776V550H210.97V543H212.776V545.646H215.562V543ZM221.544 542.804C222.608 542.804 223.48 543.149 224.162 543.84C224.852 544.521 225.198 545.408 225.198 546.5C225.198 547.592 224.852 548.483 224.162 549.174C223.48 549.855 222.603 550.196 221.53 550.196C220.811 550.196 220.167 550.033 219.598 549.706C219.028 549.37 218.604 548.927 218.324 548.376L219.85 547.494C219.971 547.783 220.181 548.017 220.48 548.194C220.778 548.371 221.138 548.46 221.558 548.46C221.95 548.46 222.295 548.357 222.594 548.152C222.902 547.937 223.126 547.657 223.266 547.312H220.886V545.688H223.266C223.126 545.343 222.902 545.067 222.594 544.862C222.295 544.647 221.95 544.54 221.558 544.54C220.736 544.54 220.172 544.857 219.864 545.492L218.338 544.61C218.636 544.059 219.066 543.621 219.626 543.294C220.195 542.967 220.834 542.804 221.544 542.804ZM230.467 543H232.273V550H230.467V547.774C229.944 547.942 229.389 548.026 228.801 548.026C227.951 548.026 227.27 547.811 226.757 547.382C226.253 546.953 226.001 546.327 226.001 545.506V543H227.807V545.296C227.807 545.996 228.241 546.346 229.109 546.346C229.613 546.346 230.065 546.257 230.467 546.08V543ZM239.917 543V550H238.111V544.736H236.179V547.074C236.179 549.239 235.194 550.215 233.225 550V548.306C233.598 548.399 233.883 548.339 234.079 548.124C234.275 547.9 234.373 547.517 234.373 546.976V543H239.917ZM244.075 542.804C245.139 542.804 246.012 543.149 246.693 543.84C247.384 544.521 247.729 545.408 247.729 546.5C247.729 547.592 247.384 548.483 246.693 549.174C246.012 549.855 245.134 550.196 244.061 550.196C243.342 550.196 242.698 550.033 242.129 549.706C241.56 549.37 241.135 548.927 240.855 548.376L242.381 547.494C242.502 547.783 242.712 548.017 243.011 548.194C243.31 548.371 243.669 548.46 244.089 548.46C244.481 548.46 244.826 548.357 245.125 548.152C245.433 547.937 245.657 547.657 245.797 547.312H243.417V545.688H245.797C245.657 545.343 245.433 545.067 245.125 544.862C244.826 544.647 244.481 544.54 244.089 544.54C243.268 544.54 242.703 544.857 242.395 545.492L240.869 544.61C241.168 544.059 241.597 543.621 242.157 543.294C242.726 542.967 243.366 542.804 244.075 542.804ZM254.98 550H252.894L251.382 547.872L249.856 550H247.77L250.332 546.43L247.882 543H249.968L251.382 544.974L252.796 543H254.868L252.418 546.416L254.98 550Z" fill="white"/>
</g>
<path d="M33.8417 28.1831C31.2489 28.1831 29.6889 26.0811 29.6889 22.7192V22.7046C29.6889 19.3428 31.2489 17.248 33.8417 17.248C36.4271 17.248 37.9945 19.3428 37.9945 22.7046V22.7192C37.9945 26.0811 36.4271 28.1831 33.8417 28.1831ZM33.8417 26.6377C35.2626 26.6377 36.0902 25.1582 36.0902 22.7192V22.7046C36.0902 20.2656 35.2626 18.8008 33.8417 18.8008C32.4135 18.8008 31.5932 20.2656 31.5932 22.7046V22.7192C31.5932 25.1582 32.4135 26.6377 33.8417 26.6377ZM44.1398 28V25.9712H38.8664V24.3599L43.2536 17.4312H45.9416V24.4185H47.3771V25.9712H45.9416V28H44.1398ZM40.5656 24.4624H44.1691V18.8594H44.1252L40.5656 24.4111V24.4624ZM49.2378 21.0859C48.6445 21.0859 48.1758 20.6172 48.1758 20.0239C48.1758 19.4307 48.6445 18.9692 49.2378 18.9692C49.8311 18.9692 50.2925 19.4307 50.2925 20.0239C50.2925 20.6172 49.8311 21.0859 49.2378 21.0859ZM49.2378 26.4619C48.6445 26.4619 48.1758 25.9932 48.1758 25.3999C48.1758 24.8066 48.6445 24.3452 49.2378 24.3452C49.8311 24.3452 50.2925 24.8066 50.2925 25.3999C50.2925 25.9932 49.8311 26.4619 49.2378 26.4619ZM54.1233 28V19.2329H54.0794L51.3475 21.1079V19.3721L54.1087 17.4312H55.9764V28H54.1233ZM62.0484 17.248C64.3775 17.248 66.3185 18.8813 66.3185 22.5874V22.6021C66.3185 26.0957 64.6998 28.1831 62.0045 28.1831C60.0489 28.1831 58.5841 27.0552 58.2545 25.4585L58.2398 25.3779H60.1148L60.1368 25.4438C60.4225 26.1689 61.067 26.6377 62.0118 26.6377C63.711 26.6377 64.4215 25.0117 64.4947 23.0122C64.5021 22.9023 64.5094 22.7925 64.5094 22.6753H64.4654C64.048 23.6421 62.9933 24.3745 61.565 24.3745C59.5289 24.3745 58.0934 22.9097 58.0934 20.9248V20.9102C58.0934 18.7788 59.7706 17.248 62.0484 17.248ZM62.0484 22.917C63.2569 22.917 64.1798 22.0674 64.1798 20.8882V20.8809C64.1798 19.709 63.2569 18.7935 62.0704 18.7935C60.8985 18.7935 59.9537 19.7017 59.9537 20.8442V20.8589C59.9537 22.0601 60.8473 22.917 62.0484 22.917Z" fill="black"/>
<rect opacity="0.35" x="336.833" y="17.833" width="21" height="10.3333" rx="2.16667" stroke="black"/>
<path opacity="0.4" d="M359.333 21V25C360.138 24.6612 360.661 23.8731 360.661 23C360.661 22.1269 360.138 21.3388 359.333 21Z" fill="black"/>
<rect x="338.333" y="19.333" width="18" height="7.33333" rx="1.33333" fill="black"/>
<path fill-rule="evenodd" clip-rule="evenodd" d="M323.667 19.6155C325.892 19.6156 328.031 20.4697 329.644 22.0013C329.765 22.1196 329.959 22.1181 330.079 21.998L331.239 20.8277C331.3 20.7667 331.334 20.6842 331.333 20.5984C331.333 20.5125 331.298 20.4304 331.237 20.3702C327.005 16.318 320.329 16.318 316.097 20.3702C316.035 20.4304 316.001 20.5125 316 20.5983C315.999 20.6842 316.033 20.7667 316.094 20.8277L317.255 21.998C317.374 22.1183 317.568 22.1198 317.69 22.0013C319.302 20.4696 321.442 19.6155 323.667 19.6155ZM323.667 23.4231C324.889 23.423 326.068 23.877 326.974 24.6968C327.097 24.8131 327.29 24.8106 327.409 24.6911L328.569 23.5208C328.63 23.4594 328.663 23.3761 328.663 23.2896C328.662 23.203 328.626 23.1204 328.564 23.0603C325.805 20.4959 321.532 20.4959 318.773 23.0603C318.71 23.1204 318.675 23.2031 318.674 23.2896C318.673 23.3762 318.707 23.4595 318.768 23.5208L319.927 24.6911C320.047 24.8106 320.24 24.8131 320.362 24.6968C321.268 23.8775 322.446 23.4236 323.667 23.4231ZM325.989 25.985C325.991 26.0717 325.957 26.1554 325.895 26.2162L323.89 28.2382C323.831 28.2976 323.751 28.3311 323.667 28.3311C323.583 28.3311 323.503 28.2976 323.445 28.2382L321.439 26.2162C321.377 26.1553 321.343 26.0717 321.345 25.9849C321.347 25.8981 321.384 25.8159 321.449 25.7578C322.729 24.6755 324.605 24.6755 325.886 25.7578C325.95 25.816 325.988 25.8982 325.989 25.985Z" fill="black"/>
<path fill-rule="evenodd" clip-rule="evenodd" d="M310 17.667H309C308.448 17.667 308 18.1147 308 18.667V27.3337C308 27.8859 308.448 28.3337 309 28.3337H310C310.552 28.3337 311 27.8859 311 27.3337V18.667C311 18.1147 310.552 17.667 310 17.667ZM304.333 20.0003H305.333C305.886 20.0003 306.333 20.448 306.333 21.0003V27.3337C306.333 27.8859 305.886 28.3337 305.333 28.3337H304.333C303.781 28.3337 303.333 27.8859 303.333 27.3337V21.0003C303.333 20.448 303.781 20.0003 304.333 20.0003ZM300.667 22.3337H299.667C299.114 22.3337 298.667 22.7814 298.667 23.3337V27.3337C298.667 27.8859 299.114 28.3337 299.667 28.3337H300.667C301.219 28.3337 301.667 27.8859 301.667 27.3337V23.3337C301.667 22.7814 301.219 22.3337 300.667 22.3337ZM296 24.3337H295C294.448 24.3337 294 24.7814 294 25.3337V27.3337C294 27.8859 294.448 28.3337 295 28.3337H296C296.552 28.3337 297 27.8859 297 27.3337V25.3337C297 24.7814 296.552 24.3337 296 24.3337Z" fill="black"/>
<rect width="375" height="56" transform="translate(0 44)" fill="white"/>
<circle cx="40" cy="72" r="20" fill="#2B3F6C"/>
<path d="M37.9376 66.4V68.776H34.5356V79H32.0516V68.776H28.6676V66.4H37.9376ZM50.9696 72.232V73.204C50.9696 75.004 50.3936 76.462 49.2416 77.578C48.0896 78.694 46.6016 79.252 44.7776 79.252C42.8336 79.252 41.2196 78.622 39.9356 77.362C38.6636 76.09 38.0276 74.542 38.0276 72.718C38.0276 70.882 38.6576 69.328 39.9176 68.056C41.1896 66.784 42.7616 66.148 44.6336 66.148C45.8096 66.148 46.8836 66.418 47.8556 66.958C48.8276 67.486 49.5836 68.194 50.1236 69.082L47.9996 70.306C47.6996 69.79 47.2436 69.37 46.6316 69.046C46.0316 68.722 45.3596 68.56 44.6156 68.56C43.4156 68.56 42.4256 68.956 41.6456 69.748C40.8776 70.528 40.4936 71.518 40.4936 72.718C40.4936 73.906 40.8836 74.89 41.6636 75.67C42.4556 76.438 43.4996 76.822 44.7956 76.822C45.7556 76.822 46.5476 76.612 47.1716 76.192C47.8076 75.76 48.2396 75.172 48.4676 74.428H44.6516V72.232H50.9696Z" fill="white"/>
<path d="M77.656 64.182C76.172 64.182 74.9447 63.692 73.974 62.712C73.0127 61.732 72.532 60.528 72.532 59.1C72.532 57.672 73.0127 56.468 73.974 55.488C74.9447 54.508 76.172 54.018 77.656 54.018C78.552 54.018 79.3733 54.2327 80.12 54.662C80.876 55.0913 81.464 55.67 81.884 56.398L80.75 57.056C80.47 56.5147 80.05 56.0853 79.49 55.768C78.9393 55.4413 78.328 55.278 77.656 55.278C76.5267 55.278 75.6027 55.642 74.884 56.37C74.1747 57.098 73.82 58.008 73.82 59.1C73.82 60.1827 74.1747 61.088 74.884 61.816C75.6027 62.544 76.5267 62.908 77.656 62.908C78.328 62.908 78.9393 62.7493 79.49 62.432C80.05 62.1053 80.47 61.676 80.75 61.144L81.884 61.788C81.4733 62.516 80.89 63.0993 80.134 63.538C79.378 63.9673 78.552 64.182 77.656 64.182ZM89.0013 57H90.2193V64H89.0013V62.796C88.3946 63.72 87.5126 64.182 86.3553 64.182C85.3753 64.182 84.5399 63.8273 83.8493 63.118C83.1586 62.3993 82.8133 61.5267 82.8133 60.5C82.8133 59.4733 83.1586 58.6053 83.8493 57.896C84.5399 57.1773 85.3753 56.818 86.3553 56.818C87.5126 56.818 88.3946 57.28 89.0013 58.204V57ZM86.5093 63.006C87.2186 63.006 87.8113 62.768 88.2873 62.292C88.7633 61.8067 89.0013 61.2093 89.0013 60.5C89.0013 59.7907 88.7633 59.198 88.2873 58.722C87.8113 58.2367 87.2186 57.994 86.5093 57.994C85.8093 57.994 85.2213 58.2367 84.7453 58.722C84.2693 59.198 84.0312 59.7907 84.0312 60.5C84.0312 61.2093 84.2693 61.8067 84.7453 62.292C85.2213 62.768 85.8093 63.006 86.5093 63.006ZM93.2126 55.95V54.886H96.9926V55.95H93.2126ZM97.1466 57H98.1266V64H96.9226V59.086L93.0446 64H92.0646V57H93.2686V61.914L97.1466 57ZM104.825 57H106.043V64H104.825V61.074H101.199V64H99.9806V57H101.199V59.912H104.825V57ZM114.575 64.182C113.539 64.182 112.685 63.8413 112.013 63.16C111.341 62.4787 111.005 61.6013 111.005 60.528C111.005 59.3333 111.177 58.414 111.523 57.77C111.877 57.126 112.596 56.5427 113.679 56.02C113.875 55.9267 114.141 55.8053 114.477 55.656C114.822 55.5067 115.074 55.3947 115.233 55.32C115.391 55.236 115.569 55.1287 115.765 54.998C115.961 54.858 116.105 54.7087 116.199 54.55C116.301 54.382 116.376 54.1907 116.423 53.976L117.403 54.536C117.375 54.6853 117.337 54.8253 117.291 54.956C117.244 55.0773 117.174 55.1987 117.081 55.32C116.997 55.432 116.922 55.53 116.857 55.614C116.791 55.698 116.679 55.7913 116.521 55.894C116.371 55.9873 116.259 56.0573 116.185 56.104C116.119 56.1507 115.984 56.2207 115.779 56.314C115.583 56.4073 115.447 56.4727 115.373 56.51C115.307 56.538 115.153 56.6033 114.911 56.706C114.668 56.7993 114.519 56.86 114.463 56.888C113.828 57.1587 113.361 57.434 113.063 57.714C112.773 57.994 112.563 58.3487 112.433 58.778C112.731 58.4047 113.105 58.1293 113.553 57.952C114.001 57.7747 114.449 57.686 114.897 57.686C115.774 57.686 116.516 57.9847 117.123 58.582C117.739 59.1793 118.047 59.9493 118.047 60.892C118.047 61.844 117.72 62.6327 117.067 63.258C116.413 63.874 115.583 64.182 114.575 64.182ZM112.937 62.39C113.375 62.8007 113.921 63.006 114.575 63.006C115.228 63.006 115.765 62.8053 116.185 62.404C116.614 62.0027 116.829 61.4987 116.829 60.892C116.829 60.2667 116.623 59.758 116.213 59.366C115.811 58.9647 115.279 58.764 114.617 58.764C114.019 58.764 113.478 58.9553 112.993 59.338C112.517 59.7113 112.279 60.206 112.279 60.822C112.279 61.4567 112.498 61.9793 112.937 62.39ZM125.136 57H126.354V64H125.136V62.796C124.529 63.72 123.647 64.182 122.49 64.182C121.51 64.182 120.675 63.8273 119.984 63.118C119.293 62.3993 118.948 61.5267 118.948 60.5C118.948 59.4733 119.293 58.6053 119.984 57.896C120.675 57.1773 121.51 56.818 122.49 56.818C123.647 56.818 124.529 57.28 125.136 58.204V57ZM122.644 63.006C123.353 63.006 123.946 62.768 124.422 62.292C124.898 61.8067 125.136 61.2093 125.136 60.5C125.136 59.7907 124.898 59.198 124.422 58.722C123.946 58.2367 123.353 57.994 122.644 57.994C121.944 57.994 121.356 58.2367 120.88 58.722C120.404 59.198 120.166 59.7907 120.166 60.5C120.166 61.2093 120.404 61.8067 120.88 62.292C121.356 62.768 121.944 63.006 122.644 63.006ZM129.347 55.95V54.886H133.127V55.95H129.347ZM133.281 57H134.261V64H133.057V59.086L129.179 64H128.199V57H129.403V61.914L133.281 57ZM140.959 57H142.177V64H140.959V61.074H137.333V64H136.115V57H137.333V59.912H140.959V57ZM149.827 57H151.045V64H149.827V62.796C149.221 63.72 148.339 64.182 147.181 64.182C146.201 64.182 145.366 63.8273 144.675 63.118C143.985 62.3993 143.639 61.5267 143.639 60.5C143.639 59.4733 143.985 58.6053 144.675 57.896C145.366 57.1773 146.201 56.818 147.181 56.818C148.339 56.818 149.221 57.28 149.827 58.204V57ZM147.335 63.006C148.045 63.006 148.637 62.768 149.113 62.292C149.589 61.8067 149.827 61.2093 149.827 60.5C149.827 59.7907 149.589 59.198 149.113 58.722C148.637 58.2367 148.045 57.994 147.335 57.994C146.635 57.994 146.047 58.2367 145.571 58.722C145.095 59.198 144.857 59.7907 144.857 60.5C144.857 61.2093 145.095 61.8067 145.571 62.292C146.047 62.768 146.635 63.006 147.335 63.006ZM161.277 57H162.579L159.723 64.434C159.424 65.2273 159.004 65.8293 158.463 66.24C157.921 66.66 157.305 66.8467 156.615 66.8V65.666C157.473 65.7313 158.103 65.2647 158.505 64.266L158.617 64.014L155.579 57H156.867L159.261 62.488L161.277 57ZM168.523 57H169.825L166.969 64.434C166.67 65.2273 166.25 65.8293 165.709 66.24C165.168 66.66 164.552 66.8467 163.861 66.8V65.666C164.72 65.7313 165.35 65.2647 165.751 64.266L165.863 64.014L162.825 57H164.113L166.507 62.488L168.523 57ZM171.39 62.558L170.48 65.96H169.43L169.99 62.558H171.39Z" fill="#1B2234" fill-opacity="0.32"/>
<path d="M78.352 86.224C76.6667 86.224 75.2747 85.664 74.176 84.544C73.0773 83.424 72.528 82.0427 72.528 80.4C72.528 78.7467 73.0773 77.3653 74.176 76.256C75.2747 75.136 76.6667 74.576 78.352 74.576C79.3653 74.576 80.2987 74.816 81.152 75.296C82.016 75.7653 82.688 76.4053 83.168 77.216L81.264 78.32C80.9867 77.8187 80.592 77.4293 80.08 77.152C79.568 76.864 78.992 76.72 78.352 76.72C77.264 76.72 76.384 77.0613 75.712 77.744C75.0507 78.4267 74.72 79.312 74.72 80.4C74.72 81.4773 75.0507 82.3573 75.712 83.04C76.384 83.7227 77.264 84.064 78.352 84.064C78.992 84.064 79.568 83.9253 80.08 83.648C80.6027 83.36 80.9973 82.9707 81.264 82.48L83.168 83.584C82.688 84.3947 82.0213 85.04 81.168 85.52C80.3147 85.9893 79.376 86.224 78.352 86.224ZM89.8174 78H92.0894L89.0494 86V89.168H86.6974V86L83.6574 78H85.9294L87.8654 83.6L89.8174 78ZM100.336 86H97.9516L96.2236 83.568L94.4796 86H92.0956L95.0236 81.92L92.2236 78H94.6076L96.2236 80.256L97.8396 78H100.208L97.4076 81.904L100.336 86ZM104.595 86.224C103.337 86.224 102.318 85.8187 101.539 85.008C100.771 84.1973 100.387 83.168 100.387 81.92C100.387 80.5547 100.59 79.504 100.995 78.768C101.401 78.0213 102.217 77.344 103.443 76.736C103.625 76.6507 103.881 76.5333 104.211 76.384C104.542 76.224 104.766 76.112 104.883 76.048C105.011 75.984 105.182 75.888 105.395 75.76C105.609 75.632 105.758 75.52 105.843 75.424C105.939 75.3173 106.041 75.184 106.147 75.024C106.254 74.864 106.339 74.688 106.403 74.496L108.099 75.472C107.961 76.1227 107.646 76.6293 107.155 76.992C106.675 77.344 105.95 77.7067 104.979 78.08C104.297 78.3467 103.801 78.6133 103.491 78.88C103.182 79.1467 102.958 79.4667 102.819 79.84C103.417 79.232 104.217 78.928 105.219 78.928C106.105 78.928 106.894 79.2533 107.587 79.904C108.281 80.544 108.627 81.3973 108.627 82.464C108.627 83.5627 108.254 84.464 107.507 85.168C106.771 85.872 105.801 86.224 104.595 86.224ZM103.123 83.792C103.518 84.1547 104.003 84.336 104.579 84.336C105.155 84.336 105.63 84.16 106.003 83.808C106.377 83.456 106.563 83.008 106.563 82.464C106.563 81.92 106.377 81.472 106.003 81.12C105.63 80.7573 105.15 80.576 104.563 80.576C104.041 80.576 103.571 80.7413 103.155 81.072C102.75 81.4027 102.547 81.8453 102.547 82.4C102.547 82.9653 102.739 83.4293 103.123 83.792ZM115.962 78H118.026V86H115.962V85.056C115.343 85.8347 114.474 86.224 113.354 86.224C112.287 86.224 111.37 85.8187 110.602 85.008C109.844 84.1867 109.465 83.184 109.465 82C109.465 80.816 109.844 79.8187 110.602 79.008C111.37 78.1867 112.287 77.776 113.354 77.776C114.474 77.776 115.343 78.1653 115.962 78.944V78ZM112.154 83.632C112.57 84.048 113.098 84.256 113.738 84.256C114.378 84.256 114.906 84.048 115.322 83.632C115.748 83.2053 115.962 82.6613 115.962 82C115.962 81.3387 115.748 80.8 115.322 80.384C114.906 79.9573 114.378 79.744 113.738 79.744C113.098 79.744 112.57 79.9573 112.154 80.384C111.738 80.8 111.53 81.3387 111.53 82C111.53 82.6613 111.738 83.2053 112.154 83.632ZM126.201 78V79.984H123.705V86H121.641V79.984H119.113V78H126.201ZM137.767 74.8H139.959V86H137.767V81.36H133.607V86H131.399V74.8H133.607V79.248H137.767V74.8ZM148.024 78H150.088V86H148.024V85.056C147.405 85.8347 146.536 86.224 145.416 86.224C144.349 86.224 143.432 85.8187 142.664 85.008C141.907 84.1867 141.528 83.184 141.528 82C141.528 80.816 141.907 79.8187 142.664 79.008C143.432 78.1867 144.349 77.776 145.416 77.776C146.536 77.776 147.405 78.1653 148.024 78.944V78ZM144.216 83.632C144.632 84.048 145.16 84.256 145.8 84.256C146.44 84.256 146.968 84.048 147.384 83.632C147.811 83.2053 148.024 82.6613 148.024 82C148.024 81.3387 147.811 80.8 147.384 80.384C146.968 79.9573 146.44 79.744 145.8 79.744C145.16 79.744 144.632 79.9573 144.216 80.384C143.8 80.8 143.592 81.3387 143.592 82C143.592 82.6613 143.8 83.2053 144.216 83.632ZM156.616 77.776C157.693 77.776 158.61 78.1867 159.368 79.008C160.136 79.8187 160.52 80.816 160.52 82C160.52 83.184 160.136 84.1867 159.368 85.008C158.61 85.8187 157.693 86.224 156.616 86.224C155.496 86.224 154.632 85.8347 154.024 85.056V89.2H151.96V78H154.024V78.944C154.632 78.1653 155.496 77.776 156.616 77.776ZM154.648 83.632C155.064 84.048 155.592 84.256 156.232 84.256C156.872 84.256 157.4 84.048 157.816 83.632C158.242 83.2053 158.456 82.6613 158.456 82C158.456 81.3387 158.242 80.8 157.816 80.384C157.4 79.9573 156.872 79.744 156.232 79.744C155.592 79.744 155.064 79.9573 154.648 80.384C154.232 80.8 154.024 81.3387 154.024 82C154.024 82.6613 154.232 83.2053 154.648 83.632ZM170.295 78V86H168.295V81.328L166.263 84.528H166.007L163.959 81.296V86H161.975V78H164.007L166.135 81.36L168.263 78H170.295ZM178.258 78H180.322V86H178.258V85.056C177.64 85.8347 176.77 86.224 175.65 86.224C174.584 86.224 173.666 85.8187 172.898 85.008C172.141 84.1867 171.762 83.184 171.762 82C171.762 80.816 172.141 79.8187 172.898 79.008C173.666 78.1867 174.584 77.776 175.65 77.776C176.77 77.776 177.64 78.1653 178.258 78.944V78ZM174.45 83.632C174.866 84.048 175.394 84.256 176.034 84.256C176.674 84.256 177.202 84.048 177.618 83.632C178.045 83.2053 178.258 82.6613 178.258 82C178.258 81.3387 178.045 80.8 177.618 80.384C177.202 79.9573 176.674 79.744 176.034 79.744C175.394 79.744 174.866 79.9573 174.45 80.384C174.034 80.8 173.826 81.3387 173.826 82C173.826 82.6613 174.034 83.2053 174.45 83.632ZM187.442 78H189.506V86H187.442V82.96H184.258V86H182.194V78H184.258V81.024H187.442V78ZM198.597 84.064H199.653V88.144H197.637V86H192.677V88.144H190.661V84.064H191.637C192.096 83.3813 192.325 82.4373 192.325 81.232V78H198.597V84.064ZM193.845 84.064H196.581V79.856H194.341V81.232C194.341 82.3627 194.176 83.3067 193.845 84.064ZM206.727 78H208.791V86H206.727V85.056C206.108 85.8347 205.239 86.224 204.119 86.224C203.052 86.224 202.135 85.8187 201.367 85.008C200.61 84.1867 200.231 83.184 200.231 82C200.231 80.816 200.61 79.8187 201.367 79.008C202.135 78.1867 203.052 77.776 204.119 77.776C205.239 77.776 206.108 78.1653 206.727 78.944V78ZM202.919 83.632C203.335 84.048 203.863 84.256 204.503 84.256C205.143 84.256 205.671 84.048 206.087 83.632C206.514 83.2053 206.727 82.6613 206.727 82C206.727 81.3387 206.514 80.8 206.087 80.384C205.671 79.9573 205.143 79.744 204.503 79.744C203.863 79.744 203.335 79.9573 202.919 80.384C202.503 80.8 202.295 81.3387 202.295 82C202.295 82.6613 202.503 83.2053 202.919 83.632ZM218.039 86H215.655L213.927 83.568L212.183 86H209.799L212.727 81.92L209.927 78H212.311L213.927 80.256L215.543 78H217.911L215.111 81.904L218.039 86Z" fill="#1B2234"/>
<g opacity="0.3">
<path d="M295 69.75C293.757 69.75 292.75 70.7574 292.75 72C292.75 73.2426 293.757 74.25 295 74.25C295.68 74.25 296.29 73.9479 296.703 73.4706C296.017 73.3328 295.5 72.7267 295.5 72C295.5 71.2733 296.017 70.6673 296.703 70.5294C296.29 70.0521 295.68 69.75 295 69.75Z" fill="#2B3F6C"/>
<path fill-rule="evenodd" clip-rule="evenodd" d="M295 65.25C290.919 65.25 287.368 67.5169 285.543 70.8556C285.152 71.5688 285.152 72.431 285.543 73.1443C287.368 76.4831 290.919 78.75 295 78.75C299.081 78.75 302.632 76.4831 304.457 73.1444C304.848 72.4312 304.848 71.569 304.457 70.8557C302.632 67.5169 299.081 65.25 295 65.25ZM291.25 72C291.25 69.9289 292.929 68.25 295 68.25C297.071 68.25 298.75 69.9289 298.75 72C298.75 74.0711 297.071 75.75 295 75.75C292.929 75.75 291.25 74.0711 291.25 72Z" fill="#2B3F6C"/>
</g>
<path d="M295 69.75C293.757 69.75 292.75 70.7574 292.75 72C292.75 73.2426 293.757 74.25 295 74.25C295.68 74.25 296.29 73.9479 296.703 73.4706C296.017 73.3328 295.5 72.7267 295.5 72C295.5 71.2733 296.017 70.6673 296.703 70.5294C296.29 70.0521 295.68 69.75 295 69.75Z" fill="#2B3F6C"/>
<g opacity="0.3">
<path fill-rule="evenodd" clip-rule="evenodd" d="M342.826 62C339.464 62 336.739 64.7252 336.739 68.087V70.1795C336.739 71.2798 336.03 72.2422 335.466 73.1872C335.17 73.684 335 74.2647 335 74.8851C335 76.488 336.145 77.8633 337.733 78.0834C339.31 78.3021 341.28 78.522 342.826 78.522C344.372 78.522 346.343 78.3021 347.919 78.0834C349.507 77.8633 350.652 76.488 350.652 74.8851C350.652 74.2647 350.482 73.684 350.186 73.1872C349.622 72.2422 348.913 71.2798 348.913 70.1795V68.087C348.913 64.7252 346.188 62 342.826 62Z" fill="#2B3F6C"/>
<path d="M335 74.8851H334.25H335ZM337.733 78.0834L337.836 77.3405H337.836L337.733 78.0834ZM347.919 78.0834L347.816 77.3405H347.816L347.919 78.0834ZM335.466 73.1872L334.822 72.8031L335.466 73.1872ZM337.489 68.087C337.489 65.1394 339.879 62.75 342.826 62.75V61.25C339.05 61.25 335.989 64.311 335.989 68.087H337.489ZM337.489 70.1795V68.087H335.989V70.1795H337.489ZM335.75 74.8851C335.75 74.4037 335.882 73.9552 336.111 73.5714L334.822 72.8031C334.459 73.4128 334.25 74.1257 334.25 74.8851H335.75ZM337.836 77.3405C336.636 77.1742 335.75 76.1313 335.75 74.8851H334.25C334.25 76.8448 335.654 78.5524 337.63 78.8263L337.836 77.3405ZM342.826 77.772C341.334 77.772 339.407 77.5583 337.836 77.3405L337.63 78.8263C339.213 79.0458 341.225 79.272 342.826 79.272V77.772ZM347.816 77.3405C346.246 77.5583 344.318 77.772 342.826 77.772V79.272C344.427 79.272 346.439 79.0458 348.022 78.8263L347.816 77.3405ZM349.902 74.8851C349.902 76.1313 349.016 77.1742 347.816 77.3405L348.022 78.8263C349.998 78.5524 351.402 76.8448 351.402 74.8851H349.902ZM349.542 73.5714C349.77 73.9552 349.902 74.4037 349.902 74.8851H351.402C351.402 74.1257 351.193 73.4128 350.83 72.8031L349.542 73.5714ZM348.163 68.087V70.1795H349.663V68.087H348.163ZM342.826 62.75C345.774 62.75 348.163 65.1394 348.163 68.087H349.663C349.663 64.311 346.602 61.25 342.826 61.25V62.75ZM350.83 72.8031C350.521 72.2851 350.24 71.8701 350.009 71.4066C349.788 70.9629 349.663 70.567 349.663 70.1795H348.163C348.163 70.8924 348.393 71.5278 348.667 72.0766C348.931 72.6056 349.287 73.1443 349.542 73.5714L350.83 72.8031ZM335.989 70.1795C335.989 70.567 335.865 70.9629 335.643 71.4066C335.412 71.8701 335.131 72.2851 334.822 72.8031L336.111 73.5714C336.365 73.1443 336.721 72.6056 336.985 72.0766C337.259 71.5278 337.489 70.8923 337.489 70.1795H335.989Z" fill="#2B3F6C"/>
</g>
<path d="M345 80.834C344.533 81.5369 343.733 82.0002 342.826 82.0002C341.919 82.0002 341.12 81.5369 340.652 80.834" stroke="#2B3F6C" stroke-width="1.5" stroke-linecap="round"/>
</g>
<defs>
<filter id="filter0_b_6370_5205" x="-20" y="812" width="415" height="130" filterUnits="userSpaceOnUse" color-interpolation-filters="sRGB">
<feFlood flood-opacity="0" result="BackgroundImageFix"/>
<feGaussianBlur in="BackgroundImageFix" stdDeviation="10"/>
<feComposite in2="SourceAlpha" operator="in" result="effect1_backgroundBlur_6370_5205"/>
<feBlend mode="normal" in="SourceGraphic" in2="effect1_backgroundBlur_6370_5205" result="shape"/>
</filter>
<filter id="filter1_ddd_6370_5205" x="1" y="183" width="368" height="424" filterUnits="userSpaceOnUse" color-interpolation-filters="sRGB">
<feFlood flood-opacity="0" result="BackgroundImageFix"/>
<feColorMatrix in="SourceAlpha" type="matrix" values="0 0 0 0 0 0 0 0 0 0 0 0 0 0 0 0 0 0 127 0" result="hardAlpha"/>
<feOffset/>
<feGaussianBlur stdDeviation="0.5"/>
<feColorMatrix type="matrix" values="0 0 0 0 0 0 0 0 0 0 0 0 0 0 0 0 0 0 0.04 0"/>
<feBlend mode="normal" in2="BackgroundImageFix" result="effect1_dropShadow_6370_5205"/>
<feColorMatrix in="SourceAlpha" type="matrix" values="0 0 0 0 0 0 0 0 0 0 0 0 0 0 0 0 0 0 127 0" result="hardAlpha"/>
<feOffset/>
<feGaussianBlur stdDeviation="1"/>
<feColorMatrix type="matrix" values="0 0 0 0 0 0 0 0 0 0 0 0 0 0 0 0 0 0 0.06 0"/>
<feBlend mode="normal" in2="effect1_dropShadow_6370_5205" result="effect2_dropShadow_6370_5205"/>
<feColorMatrix in="SourceAlpha" type="matrix" values="0 0 0 0 0 0 0 0 0 0 0 0 0 0 0 0 0 0 127 0" result="hardAlpha"/>
<feOffset dy="4"/>
<feGaussianBlur stdDeviation="4"/>
<feColorMatrix type="matrix" values="0 0 0 0 0 0 0 0 0 0 0 0 0 0 0 0 0 0 0.04 0"/>
<feBlend mode="normal" in2="effect2_dropShadow_6370_5205" result="effect3_dropShadow_6370_5205"/>
<feBlend mode="normal" in="SourceGraphic" in2="effect3_dropShadow_6370_5205" result="shape"/>
</filter>
<clipPath id="clip0_6370_5205">
<rect width="375" height="922" fill="white"/>
</clipPath>
</defs>
</svg>
