<?xml version="1.0" standalone="no"?>
<!DOCTYPE svg PUBLIC "-//W3C//DTD SVG 20010904//EN"
 "http://www.w3.org/TR/2001/REC-SVG-20010904/DTD/svg10.dtd">
<svg version="1.0" xmlns="http://www.w3.org/2000/svg"
 width="457.000000pt" height="155.000000pt" viewBox="0 0 457.000000 155.000000"
 preserveAspectRatio="xMidYMid meet">

<g transform="translate(0.000000,155.000000) scale(0.100000,-0.100000)"
fill="#FFFFFF" stroke="none">
<path d="M3585 1193 c-34 -9 -45 -24 -45 -64 0 -46 27 -69 83 -69 42 0 87 35
87 68 0 47 -66 81 -125 65z m82 -49 c9 -25 -10 -49 -44 -52 -35 -4 -57 18 -48
48 5 16 15 20 46 20 27 0 42 -5 46 -16z"/>
<path d="M3815 1138 c-15 -36 -55 -78 -95 -99 -14 -7 -57 -13 -97 -13 l-73 0
0 -198 0 -198 75 0 75 0 0 145 0 145 30 0 30 0 0 -95 c0 -161 32 -205 149
-205 50 0 65 4 91 26 28 24 31 31 28 78 -3 45 -6 51 -26 54 -14 2 -29 -4 -36
-13 -7 -10 -21 -16 -32 -13 -17 3 -19 13 -22 86 l-3 83 43 -3 43 -3 49 -133
49 -134 -18 -56 c-10 -32 -20 -63 -22 -69 -4 -10 15 -13 73 -13 l79 0 93 263
c51 144 92 268 92 275 0 8 -22 12 -74 12 l-73 0 -34 -99 c-18 -55 -36 -98 -39
-95 -3 3 -19 47 -36 97 l-31 92 -91 3 -92 3 0 54 0 55 -46 0 c-41 0 -46 -3
-59 -32z m65 -53 l0 -54 96 -3 96 -3 44 -120 c25 -66 47 -127 50 -135 3 -8 27
46 54 120 47 134 48 135 80 138 18 2 36 0 40 -5 5 -4 -29 -111 -74 -238 l-82
-230 -42 -3 c-47 -4 -49 1 -27 55 15 37 15 39 -42 195 l-58 158 -67 0 -68 0 0
-110 c0 -106 1 -110 25 -126 22 -15 29 -15 53 -3 15 7 30 15 35 17 4 2 7 -10
7 -27 0 -38 -39 -61 -100 -61 -33 0 -48 6 -71 29 -29 29 -29 30 -29 156 l0
126 -67 -3 -68 -3 -3 -147 -3 -148 -39 0 -40 0 0 165 0 165 43 0 c69 0 136 25
179 67 21 20 38 42 38 48 0 13 20 35 32 35 4 0 8 -25 8 -55z"/>
<path d="M1424 1139 c-44 -13 -119 -82 -137 -127 -25 -61 -30 -127 -17 -197
14 -75 47 -131 98 -165 32 -23 46 -25 136 -25 83 0 108 4 141 21 l40 21 3 111
3 112 -74 0 -73 0 10 -61 c12 -70 3 -92 -39 -97 -75 -9 -115 36 -115 131 0
102 45 157 128 157 52 0 90 -15 125 -48 l27 -26 0 71 c0 67 -2 73 -27 91 -58
40 -153 53 -229 31z"/>
<path d="M3220 1137 c-19 -6 -51 -28 -72 -49 -103 -103 -85 -357 30 -432 48
-32 125 -49 182 -41 53 8 76 19 113 53 24 23 27 32 27 94 0 60 -2 68 -19 68
-10 0 -35 -16 -54 -35 -31 -31 -41 -35 -85 -35 -44 0 -54 4 -76 31 -21 24 -26
41 -26 84 0 43 5 60 26 84 48 57 142 35 183 -43 8 -14 23 -26 33 -26 17 0 18
8 16 97 l-3 97 -43 31 c-38 26 -53 30 -120 32 -42 1 -93 -3 -112 -10z m177
-32 c61 -26 73 -42 73 -99 l0 -50 -34 33 c-63 61 -175 51 -209 -17 -35 -68
-27 -163 16 -210 47 -51 147 -49 201 4 l26 27 0 -41 c0 -71 -57 -106 -161
-100 -58 3 -74 8 -106 34 -58 47 -82 105 -83 195 0 120 29 181 102 218 51 25
123 27 175 6z"/>
<path d="M420 1075 c-89 -28 -169 -123 -170 -200 0 -29 -4 -32 -57 -50 -98
-32 -94 -28 -76 -83 9 -26 19 -51 24 -56 5 -6 38 0 83 14 l75 23 38 -26 c63
-43 107 -57 185 -57 148 0 245 81 270 224 2 14 21 25 67 41 36 12 67 27 69 33
5 15 -27 112 -37 112 -4 0 -41 -11 -81 -25 -72 -25 -74 -25 -94 -6 -67 61
-202 87 -296 56z m167 -105 c116 -70 68 -230 -68 -230 -107 0 -168 102 -113
188 22 34 74 62 114 62 19 0 49 -9 67 -20z"/>
<path d="M2046 1060 c-58 -10 -101 -27 -138 -52 l-28 -19 0 35 0 36 -65 0 -65
0 0 -215 0 -215 69 0 68 0 5 93 c5 101 20 140 72 195 38 41 69 58 131 72 56
12 113 0 141 -31 26 -29 25 -152 -1 -196 -29 -49 -80 -66 -109 -37 -37 37 -1
108 59 120 33 6 35 9 35 46 0 33 -3 39 -17 34 -10 -2 -34 -8 -53 -11 -119 -24
-200 -130 -170 -221 17 -50 60 -74 135 -74 45 0 71 6 103 25 l42 24 0 -80 0
-79 65 0 65 0 0 184 c0 102 4 196 10 210 20 53 96 60 118 11 15 -32 16 -114 2
-150 -12 -31 -53 -49 -81 -35 -17 10 -19 7 -19 -34 0 -54 24 -76 83 -76 78 0
117 38 143 142 29 113 1 243 -60 283 -59 39 -146 27 -191 -27 l-26 -31 -27 26
c-15 14 -40 31 -57 37 -40 15 -178 21 -239 10z"/>
<path d="M2805 1056 c-83 -31 -121 -113 -113 -242 4 -62 10 -82 34 -116 43
-61 85 -80 169 -76 52 2 80 9 108 26 34 22 37 27 37 69 0 44 -1 45 -18 30 -37
-33 -90 -48 -131 -37 -50 13 -72 47 -78 119 -6 75 13 132 50 145 37 13 59 -9
61 -62 1 -47 -25 -82 -61 -82 -25 0 -30 -18 -13 -51 25 -45 150 -3 182 61 36
72 16 169 -43 204 -41 24 -133 30 -184 12z"/>
<path d="M4406 724 c-19 -18 -21 -65 -4 -82 18 -18 28 -15 28 9 0 27 19 61 30
54 6 -4 5 -14 -3 -25 -9 -16 -9 -23 5 -36 37 -37 75 24 44 71 -19 29 -75 35
-100 9z m88 -10 c19 -18 20 -28 5 -55 -8 -16 -13 -18 -24 -9 -11 9 -12 16 -2
31 9 14 9 21 0 30 -19 19 -41 3 -49 -35 -3 -20 -10 -33 -15 -30 -13 8 -11 58
3 72 17 17 64 15 82 -4z"/>
<path d="M2260 385 c0 -58 2 -65 20 -65 17 0 20 7 20 47 0 52 11 49 30 -10 10
-32 16 -38 37 -35 20 2 30 13 44 48 l18 45 0 -47 c1 -44 3 -48 26 -48 24 0 25
2 25 65 l0 65 -40 0 c-38 0 -41 -2 -57 -42 l-17 -42 -14 42 c-13 40 -16 42
-53 42 l-39 0 0 -65z"/>
<path d="M3260 385 c0 -63 1 -65 25 -65 24 0 25 2 25 65 0 63 -1 65 -25 65
-24 0 -25 -2 -25 -65z"/>
<path d="M3350 440 c0 -5 11 -10 25 -10 14 0 25 5 25 10 0 6 -11 10 -25 10
-14 0 -25 -4 -25 -10z"/>
<path d="M2527 392 c-37 -41 -10 -72 63 -72 54 0 80 15 80 45 0 31 -26 45 -83
45 -30 0 -49 -6 -60 -18z m88 -27 c0 -22 -31 -33 -47 -17 -17 17 -1 44 24 40
15 -2 23 -10 23 -23z"/>
<path d="M2700 365 c0 -41 2 -45 25 -45 20 0 25 5 25 24 0 26 24 51 40 41 5
-3 10 -19 10 -36 0 -24 4 -29 26 -29 23 0 25 3 22 43 l-3 42 -72 2 -73 2 0
-44z"/>
<path d="M2891 397 c-32 -32 5 -82 56 -74 25 4 33 2 33 -9 0 -12 -10 -13 -52
-8 -49 7 -52 6 -39 -9 9 -12 29 -17 67 -17 67 0 84 16 84 80 l0 48 -69 0 c-39
1 -73 -4 -80 -11z m86 -23 c3 -8 1 -20 -6 -27 -14 -14 -47 15 -37 32 10 16 36
13 43 -5z"/>
<path d="M3088 399 c-21 -12 -24 -49 -6 -67 20 -20 112 -15 131 6 22 24 21 35
-1 55 -21 19 -96 23 -124 6z m80 -37 c3 -16 -2 -22 -17 -22 -24 0 -35 15 -27
36 9 23 40 13 44 -14z"/>
<path d="M3350 365 c0 -41 2 -45 25 -45 23 0 25 4 25 45 0 41 -2 45 -25 45
-23 0 -25 -4 -25 -45z"/>
<path d="M3452 401 c-21 -13 9 -21 55 -15 29 4 34 3 23 -5 -8 -6 -25 -11 -37
-11 -35 0 -53 -11 -53 -31 0 -17 8 -19 76 -18 l75 1 -3 41 -3 42 -60 3 c-33 1
-66 -2 -73 -7z m88 -50 c0 -12 -29 -23 -41 -15 -5 3 -7 10 -4 15 8 12 45 12
45 0z"/>
</g>
</svg>
