<?xml version="1.0" standalone="no"?>
<!DOCTYPE svg PUBLIC "-//W3C//DTD SVG 20010904//EN"
 "http://www.w3.org/TR/2001/REC-SVG-20010904/DTD/svg10.dtd">
<svg version="1.0" xmlns="http://www.w3.org/2000/svg"
 width="377.000000pt" height="149.000000pt" viewBox="0 0 377.000000 149.000000"
 preserveAspectRatio="xMidYMid meet">

<g transform="translate(0.000000,149.000000) scale(0.100000,-0.100000)"
fill="#ffffff" stroke="none">
<path d="M790 1315 c-172 -47 -310 -174 -371 -340 -32 -87 -33 -254 -1 -345
44 -128 141 -238 263 -299 127 -64 248 -74 390 -35 l55 16 92 -37 c51 -21 95
-35 98 -32 10 10 -230 328 -251 333 -11 3 -37 -2 -57 -11 -59 -24 -145 -20
-206 11 -190 95 -186 358 8 460 51 27 162 25 215 -3 85 -45 133 -118 142 -217
5 -61 7 -64 36 -70 44 -9 45 -8 52 24 6 28 10 30 51 30 l44 0 0 -41 0 -42 -50
7 c-44 6 -50 4 -50 -11 0 -39 -14 -46 -55 -29 -21 9 -39 15 -39 14 -1 -2 -14
-19 -28 -39 l-27 -36 28 -27 c33 -32 38 -32 60 -4 l18 21 31 -21 c40 -29 48
-28 67 9 17 32 16 32 81 13 28 -8 44 34 51 137 18 248 -123 469 -352 550 -79
28 -220 34 -295 14z"/>
<path d="M1715 1167 c-3 -6 -4 -183 -3 -392 l3 -380 80 0 80 0 3 121 3 121 91
6 c197 13 291 115 276 301 -9 111 -72 191 -172 221 -65 20 -354 21 -361 2z
m325 -153 c21 -20 25 -35 28 -97 4 -67 2 -76 -21 -102 -20 -24 -35 -30 -88
-36 -35 -3 -67 -4 -71 -2 -9 5 -11 257 -3 264 2 3 33 3 67 1 49 -3 68 -9 88
-28z"/>
<path d="M2440 964 c-36 -7 -78 -19 -93 -25 -25 -10 -27 -15 -21 -43 6 -29 31
-86 37 -86 2 0 26 6 53 14 27 8 70 18 96 21 42 6 50 4 72 -18 14 -15 26 -38
26 -52 0 -24 -2 -25 -72 -25 -128 0 -219 -61 -234 -155 -25 -169 125 -267 280
-185 l56 29 37 -25 c53 -36 91 -30 116 19 16 32 17 40 6 54 -10 11 -15 64 -19
187 -6 207 -16 235 -100 278 -61 32 -132 36 -240 12z m170 -373 c0 -59 -22
-81 -80 -81 -46 0 -60 15 -60 61 0 49 27 69 92 69 l48 0 0 -49z"/>
<path d="M2859 967 l-26 -12 71 -256 c39 -141 77 -264 85 -273 7 -9 31 -21 52
-28 22 -6 39 -13 39 -15 0 -2 -9 -21 -20 -43 -28 -54 -50 -64 -133 -57 l-68 6
-15 -34 c-19 -46 -18 -81 4 -90 34 -13 158 -17 200 -6 57 16 107 62 142 132
42 83 195 660 178 670 -21 13 -94 21 -126 14 -29 -6 -32 -10 -53 -103 -60
-266 -78 -345 -82 -349 -3 -2 -8 15 -12 39 -10 68 -74 340 -87 371 -6 15 -19
32 -29 37 -24 13 -88 12 -120 -3z"/>
<path d="M1258 525 l-27 -32 33 -32 33 -32 31 37 c34 41 32 48 -15 75 -27 16
-29 15 -55 -16z"/>
</g>
</svg>
